<svg version="1.1" viewBox="0.0 0.0 540.0 540.0" fill="none" stroke="none" stroke-linecap="square" stroke-miterlimit="10" xmlns:xlink="http://www.w3.org/1999/xlink" xmlns="http://www.w3.org/2000/svg"><clipPath id="g11e388f419c_3_0.0"><path d="m0 0l540.0 0l0 540.0l-540.0 0l0 -540.0z" clip-rule="nonzero"/></clipPath><g clip-path="url(#g11e388f419c_3_0.0)"><path fill="#243b81" d="m0 0l540.0 0l0 540.0l-540.0 0z" fill-rule="evenodd"/><path fill="#ffffff" d="m122.18382 9.531165c0 0 0 0 0 0l0 0c0 0 0 0 0 0zm0.14920044 12.42924c1.3615265 0.80353165 2.9410477 1.6187172 4.738571 2.4455585c7.7373505 2.0184803 14.178177 5.562542 19.32248 10.632198c5.144287 5.0227127 8.99205 11.148548 11.543289 18.37751l39.71144 94.70402c0.5018921 1.7368317 0.94104004 3.262436 1.3174438 4.576767c0.41822815 1.2674255 0.62734985 2.4878845 0.62734985 3.6614227c0 1.1735382 -0.2091217 2.4174957 -0.62734985 3.731842c-0.3764038 1.2674103 -0.9410248 2.769516 -1.6938477 4.506363l-21.204529 44.99321c-1.4299469 3.1664276 -2.5384827 4.7496643 -3.3256073 4.7496643c-0.064697266 0 -0.12722778 -0.010681152 -0.1875763 -0.032073975c-0.7528229 -0.28164673 -1.7774963 -2.0184631 -3.0740356 -5.2104797c-4.8515167 -13.800735 -9.849442 -27.272888 -14.993729 -40.416443c-5.1443024 -13.143555 -10.163116 -26.263641 -15.056473 -39.360245c-4.8933563 -13.14357 -9.912186 -26.263649 -15.056473 -39.360268c-5.102478 -13.143562 -10.225853 -26.474876 -15.370148 -39.99396c-0.25094604 -0.8918915 -0.64826965 -2.7695465 -1.1919708 -5.6329536c-0.50188446 -2.9103546 -0.7528229 -5.2339478 -0.7528229 -6.9707794c0 -3.1450691 0.37641144 -5.86767 1.1292343 -8.167782c0.7946472 -2.3470573 3.2413177 -4.083891 7.340027 -5.2104797c2.7192612 -0.59171104 4.987503 -1.2660751 6.8047256 -2.0230885zm268.03864 -13.960416c-7.193634 0 -12.986206 0.28164768 -17.377686 0.84494305c-4.34964 0.56329536 -8.5737915 0.9857664 -12.672516 1.2674141c-1.5558472 0.11265755 -3.058136 0.16899014 -4.5069275 0.16899014c-2.1731262 0 -4.22583 -0.12674427 -6.158081 -0.38022614c-3.1785889 -0.42247105 -8.615662 -0.63370705 -16.311188 -0.63370705c-2.8439941 0 -5.437042 0.4459448 -7.779175 1.3378267c-2.300293 0.84494305 -3.4504395 2.2766542 -3.4504395 4.295126c0 2.581768 1.3383789 4.600239 4.0150757 6.0554237c2.7185364 1.4551868 5.3743286 2.6052418 7.9673767 3.4501839c3.3458862 0.844944 5.91803 2.4409523 7.7164307 4.7880096c1.7984314 2.300129 2.8230896 5.022728 3.0740356 8.167782c0.25094604 1.4551849 0.1882019 3.567543 -0.1882019 6.3370705c-0.3764038 2.7226028 -1.861145 7.6749 -4.454193 14.8569145c-7.4446106 22.531815 -15.934784 47.058624 -25.47055 73.580444c-9.493927 26.52182 -19.113342 52.03441 -28.858246 76.53775c-0.5018616 1.7368164 -1.2128601 2.9807434 -2.1329956 3.7318268c-0.1882019 0.15089417 -0.3744812 0.22633362 -0.5588379 0.22633362c-0.6760254 0 -1.3262024 -1.014267 -1.9505615 -3.042801l-29.673798 -76.60817c-1.2965393 -3.7552948 -2.0702667 -7.41671 -2.3212128 -10.984253c-0.2509308 -3.6144714 0.2718506 -7.158531 1.5683899 -10.632202c2.8021698 -6.3370667 5.6880035 -13.096611 8.657455 -20.278625c2.9694824 -7.2289658 5.980774 -14.293617 9.033905 -21.193985c3.0949402 -6.947315 5.9389343 -13.1670265 8.531982 -18.659157c3.053131 -6.618721 6.3780823 -12.228207 9.974915 -16.828445c3.5968323 -4.647188 9.389404 -8.120836 17.377686 -10.420963c2.551239 -0.8918915 4.914276 -1.8307114 7.089081 -2.8164768c2.2166443 -1.0327053 3.3249817 -2.9807663 3.3249817 -5.8441887c0 -2.581767 -1.171051 -4.3655386 -3.5131836 -5.351305c-2.300293 -1.0327053 -4.9978943 -1.5490627 -8.092834 -1.5490627c-7.4446106 0 -12.9653015 0.28164768 -16.562134 0.84494305c-3.5968323 0.56329536 -7.44458 0.98576736 -11.543304 1.267415c-3.5968018 0 -6.50354 -0.211236 -8.720184 -0.633708c-2.1748352 -0.42247105 -6.733612 -0.63370705 -13.676315 -0.63370705c-4.098694 0 -6.6081085 0.5867691 -7.5282288 1.7602978c-0.8782959 1.1265907 -1.3174438 2.5583029 -1.3174438 4.295127c0 3.192009 1.5474701 5.5860233 4.6424103 7.1820145c3.0949402 1.5490627 6.2317047 3.262413 9.410309 5.14007c3.220398 1.8776569 4.830597 4.9757805 4.830597 9.294373c0 3.1920013 -0.6482544 5.9380646 -1.9447937 8.2381935c-1.0037537 3.1920013 -2.530304 7.956543 -4.579651 14.293617c-2.0493622 6.3370705 -4.245102 12.744556 -6.587219 19.222454c-2.300293 6.47789 -4.349655 11.735321 -6.148056 15.772263c-1.0455933 2.628708 -2.0284424 4.3655396 -2.9485626 5.2104797c-0.14372253 0.13826752 -0.2997589 0.20740509 -0.4681244 0.20740509c-0.8604889 0 -2.0428162 -1.805954 -3.546936 -5.417885c-1.0037689 -2.8634186 -2.3421173 -6.7360764 -4.0150604 -11.617966c-1.6729431 -4.928833 -3.471344 -10.045433 -5.395233 -15.3497925c-1.9238892 -5.351307 -3.596817 -10.397499 -5.0188293 -15.138561c-1.4219971 -4.7880096 -2.6348724 -8.472897 -3.6386414 -11.054672c-1.0455933 -3.473648 -1.254715 -6.6421814 -0.62734985 -9.505606c0.6691742 -2.9103527 3.304062 -4.952299 7.904648 -6.1258373c2.3421173 -1.1265888 4.600586 -2.1123562 6.775406 -2.9573002c2.17482 -0.8918896 3.9105072 -1.9715328 5.2070312 -3.238947c1.296524 -1.314352 1.9447937 -2.839941 1.9447937 -4.5767746c0 -2.0184717 -1.1710663 -3.5205956 -3.5131836 -4.506362c-2.300293 -1.0327053 -5.3743134 -1.5490618 -9.222076 -1.5490618c-7.7373657 0 -15.516541 0.28164768 -23.33754 0.84494305c-7.820999 0.56329536 -15.453796 0.84494305 -22.898376 0.84494305c-4.8933563 0 -10.623184 -0.14082432 -17.189484 -0.422472c-6.566284 -0.28164768 -13.195328 -0.56329536 -19.887085 -0.84494305c-6.649948 -0.28164768 -12.547058 -0.42247105 -17.691353 -0.42247105c-1.3640137 0 -2.6168594 0.22874355 -3.7585373 0.68623257l0 0c-1.7081833 -0.457489 -3.6757507 -0.68623257 -5.9027023 -0.68623257c-7.695526 0 -15.537437 0.28164768 -23.525734 0.84494305c-7.946472 0.56329536 -15.767464 0.84494305 -23.463005 0.84494305c-7.1936493 0 -15.621086 -0.28164768 -25.282322 -0.84494305c-9.619408 -0.56329536 -18.27688 -0.84494305 -25.972416 -0.84494305c-2.0493574 0 -4.2450933 0.51635647 -6.587206 1.5490618c-2.3002996 0.9857664 -3.4504414 2.4878902 -3.4504414 4.506362c0 2.8634148 1.2128773 4.8818874 3.638647 6.0554237c2.4675837 1.1265907 4.9769955 2.2766476 7.5282364 3.4501839c7.4445934 2.0184803 12.9653 5.4217167 16.56212 10.209728c3.596817 4.741062 6.8172226 10.561787 9.661236 17.462154l97.114235 235.80948c1.2965393 2.8634033 2.4466858 5.44516 3.4504547 7.7453003c1.045578 2.3001099 2.5930634 3.4501953 4.6424103 3.4501953c2.3421173 0 4.0777893 -1.0092468 5.2070312 -3.02771c1.171051 -2.0184631 2.2584686 -4.4594116 3.2622375 -7.3228455c5.395233 -11.547546 10.790466 -23.142029 16.1857 -34.783478c5.4370575 -11.688385 10.85321 -23.306335 16.248444 -34.853897c5.395233 -11.547546 10.644089 -23.095108 15.746567 -34.642654c0.7946472 -1.7368164 1.6938477 -2.7460632 2.6976166 -3.02771c0.12802124 -0.034484863 0.25386047 -0.051742554 0.37750244 -0.051742554c0.88609314 0 1.6594696 0.8856354 2.3201141 2.6569824c7.1936493 17.884613 13.488083 33.398727 18.883316 46.542267c5.4370728 13.096619 10.204941 24.409454 14.30365 33.938553c4.098709 9.529083 7.570053 17.884613 10.414078 25.06662c1.2546997 2.9103699 2.593048 4.9992676 4.015045 6.2666626c1.4219971 1.3143616 3.1576843 1.9715271 5.2070312 1.9715271c1.7984009 0 3.3458862 -0.7276001 4.642395 -2.1827698c1.2965393 -1.4082336 2.321228 -3.2858582 3.0740356 -5.6329346l89.836945 -236.16156c1.7984314 -4.6471863 3.8477783 -8.895367 6.1480713 -12.744556c2.300293 -3.8961182 5.248871 -7.440178 8.845673 -10.632196c3.5968323 -3.1920013 8.092865 -5.4921303 13.488098 -6.9003677c2.593048 -1.1735382 5.227936 -2.2531815 7.9046326 -3.2389488c2.7185364 -1.0327053 4.07782 -2.839941 4.07782 -5.4217167c0 -2.9103613 -1.2965393 -4.7880096 -3.8895874 -5.6329527c-2.551239 -0.84494305 -5.6252747 -1.2674141 -9.222107 -1.2674141z" fill-rule="evenodd"/><path stroke="#ffffff" stroke-width="1.0" stroke-linejoin="round" stroke-linecap="butt" d="m122.18382 9.531165c0 0 0 0 0 0l0 0c0 0 0 0 0 0zm0.14920044 12.42924c1.3615265 0.80353165 2.9410477 1.6187172 4.738571 2.4455585c7.7373505 2.0184803 14.178177 5.562542 19.32248 10.632198c5.144287 5.0227127 8.99205 11.148548 11.543289 18.37751l39.71144 94.70402c0.5018921 1.7368317 0.94104004 3.262436 1.3174438 4.576767c0.41822815 1.2674255 0.62734985 2.4878845 0.62734985 3.6614227c0 1.1735382 -0.2091217 2.4174957 -0.62734985 3.731842c-0.3764038 1.2674103 -0.9410248 2.769516 -1.6938477 4.506363l-21.204529 44.99321c-1.4299469 3.1664276 -2.5384827 4.7496643 -3.3256073 4.7496643c-0.064697266 0 -0.12722778 -0.010681152 -0.1875763 -0.032073975c-0.7528229 -0.28164673 -1.7774963 -2.0184631 -3.0740356 -5.2104797c-4.8515167 -13.800735 -9.849442 -27.272888 -14.993729 -40.416443c-5.1443024 -13.143555 -10.163116 -26.263641 -15.056473 -39.360245c-4.8933563 -13.14357 -9.912186 -26.263649 -15.056473 -39.360268c-5.102478 -13.143562 -10.225853 -26.474876 -15.370148 -39.99396c-0.25094604 -0.8918915 -0.64826965 -2.7695465 -1.1919708 -5.6329536c-0.50188446 -2.9103546 -0.7528229 -5.2339478 -0.7528229 -6.9707794c0 -3.1450691 0.37641144 -5.86767 1.1292343 -8.167782c0.7946472 -2.3470573 3.2413177 -4.083891 7.340027 -5.2104797c2.7192612 -0.59171104 4.987503 -1.2660751 6.8047256 -2.0230885zm268.03864 -13.960416c-7.193634 0 -12.986206 0.28164768 -17.377686 0.84494305c-4.34964 0.56329536 -8.5737915 0.9857664 -12.672516 1.2674141c-1.5558472 0.11265755 -3.058136 0.16899014 -4.5069275 0.16899014c-2.1731262 0 -4.22583 -0.12674427 -6.158081 -0.38022614c-3.1785889 -0.42247105 -8.615662 -0.63370705 -16.311188 -0.63370705c-2.8439941 0 -5.437042 0.4459448 -7.779175 1.3378267c-2.300293 0.84494305 -3.4504395 2.2766542 -3.4504395 4.295126c0 2.581768 1.3383789 4.600239 4.0150757 6.0554237c2.7185364 1.4551868 5.3743286 2.6052418 7.9673767 3.4501839c3.3458862 0.844944 5.91803 2.4409523 7.7164307 4.7880096c1.7984314 2.300129 2.8230896 5.022728 3.0740356 8.167782c0.25094604 1.4551849 0.1882019 3.567543 -0.1882019 6.3370705c-0.3764038 2.7226028 -1.861145 7.6749 -4.454193 14.8569145c-7.4446106 22.531815 -15.934784 47.058624 -25.47055 73.580444c-9.493927 26.52182 -19.113342 52.03441 -28.858246 76.53775c-0.5018616 1.7368164 -1.2128601 2.9807434 -2.1329956 3.7318268c-0.1882019 0.15089417 -0.3744812 0.22633362 -0.5588379 0.22633362c-0.6760254 0 -1.3262024 -1.014267 -1.9505615 -3.042801l-29.673798 -76.60817c-1.2965393 -3.7552948 -2.0702667 -7.41671 -2.3212128 -10.984253c-0.2509308 -3.6144714 0.2718506 -7.158531 1.5683899 -10.632202c2.8021698 -6.3370667 5.6880035 -13.096611 8.657455 -20.278625c2.9694824 -7.2289658 5.980774 -14.293617 9.033905 -21.193985c3.0949402 -6.947315 5.9389343 -13.1670265 8.531982 -18.659157c3.053131 -6.618721 6.3780823 -12.228207 9.974915 -16.828445c3.5968323 -4.647188 9.389404 -8.120836 17.377686 -10.420963c2.551239 -0.8918915 4.914276 -1.8307114 7.089081 -2.8164768c2.2166443 -1.0327053 3.3249817 -2.9807663 3.3249817 -5.8441887c0 -2.581767 -1.171051 -4.3655386 -3.5131836 -5.351305c-2.300293 -1.0327053 -4.9978943 -1.5490627 -8.092834 -1.5490627c-7.4446106 0 -12.9653015 0.28164768 -16.562134 0.84494305c-3.5968323 0.56329536 -7.44458 0.98576736 -11.543304 1.267415c-3.5968018 0 -6.50354 -0.211236 -8.720184 -0.633708c-2.1748352 -0.42247105 -6.733612 -0.63370705 -13.676315 -0.63370705c-4.098694 0 -6.6081085 0.5867691 -7.5282288 1.7602978c-0.8782959 1.1265907 -1.3174438 2.5583029 -1.3174438 4.295127c0 3.192009 1.5474701 5.5860233 4.6424103 7.1820145c3.0949402 1.5490627 6.2317047 3.262413 9.410309 5.14007c3.220398 1.8776569 4.830597 4.9757805 4.830597 9.294373c0 3.1920013 -0.6482544 5.9380646 -1.9447937 8.2381935c-1.0037537 3.1920013 -2.530304 7.956543 -4.579651 14.293617c-2.0493622 6.3370705 -4.245102 12.744556 -6.587219 19.222454c-2.300293 6.47789 -4.349655 11.735321 -6.148056 15.772263c-1.0455933 2.628708 -2.0284424 4.3655396 -2.9485626 5.2104797c-0.14372253 0.13826752 -0.2997589 0.20740509 -0.4681244 0.20740509c-0.8604889 0 -2.0428162 -1.805954 -3.546936 -5.417885c-1.0037689 -2.8634186 -2.3421173 -6.7360764 -4.0150604 -11.617966c-1.6729431 -4.928833 -3.471344 -10.045433 -5.395233 -15.3497925c-1.9238892 -5.351307 -3.596817 -10.397499 -5.0188293 -15.138561c-1.4219971 -4.7880096 -2.6348724 -8.472897 -3.6386414 -11.054672c-1.0455933 -3.473648 -1.254715 -6.6421814 -0.62734985 -9.505606c0.6691742 -2.9103527 3.304062 -4.952299 7.904648 -6.1258373c2.3421173 -1.1265888 4.600586 -2.1123562 6.775406 -2.9573002c2.17482 -0.8918896 3.9105072 -1.9715328 5.2070312 -3.238947c1.296524 -1.314352 1.9447937 -2.839941 1.9447937 -4.5767746c0 -2.0184717 -1.1710663 -3.5205956 -3.5131836 -4.506362c-2.300293 -1.0327053 -5.3743134 -1.5490618 -9.222076 -1.5490618c-7.7373657 0 -15.516541 0.28164768 -23.33754 0.84494305c-7.820999 0.56329536 -15.453796 0.84494305 -22.898376 0.84494305c-4.8933563 0 -10.623184 -0.14082432 -17.189484 -0.422472c-6.566284 -0.28164768 -13.195328 -0.56329536 -19.887085 -0.84494305c-6.649948 -0.28164768 -12.547058 -0.42247105 -17.691353 -0.42247105c-1.3640137 0 -2.6168594 0.22874355 -3.7585373 0.68623257l0 0c-1.7081833 -0.457489 -3.6757507 -0.68623257 -5.9027023 -0.68623257c-7.695526 0 -15.537437 0.28164768 -23.525734 0.84494305c-7.946472 0.56329536 -15.767464 0.84494305 -23.463005 0.84494305c-7.1936493 0 -15.621086 -0.28164768 -25.282322 -0.84494305c-9.619408 -0.56329536 -18.27688 -0.84494305 -25.972416 -0.84494305c-2.0493574 0 -4.2450933 0.51635647 -6.587206 1.5490618c-2.3002996 0.9857664 -3.4504414 2.4878902 -3.4504414 4.506362c0 2.8634148 1.2128773 4.8818874 3.638647 6.0554237c2.4675837 1.1265907 4.9769955 2.2766476 7.5282364 3.4501839c7.4445934 2.0184803 12.9653 5.4217167 16.56212 10.209728c3.596817 4.741062 6.8172226 10.561787 9.661236 17.462154l97.114235 235.80948c1.2965393 2.8634033 2.4466858 5.44516 3.4504547 7.7453003c1.045578 2.3001099 2.5930634 3.4501953 4.6424103 3.4501953c2.3421173 0 4.0777893 -1.0092468 5.2070312 -3.02771c1.171051 -2.0184631 2.2584686 -4.4594116 3.2622375 -7.3228455c5.395233 -11.547546 10.790466 -23.142029 16.1857 -34.783478c5.4370575 -11.688385 10.85321 -23.306335 16.248444 -34.853897c5.395233 -11.547546 10.644089 -23.095108 15.746567 -34.642654c0.7946472 -1.7368164 1.6938477 -2.7460632 2.6976166 -3.02771c0.12802124 -0.034484863 0.25386047 -0.051742554 0.37750244 -0.051742554c0.88609314 0 1.6594696 0.8856354 2.3201141 2.6569824c7.1936493 17.884613 13.488083 33.398727 18.883316 46.542267c5.4370728 13.096619 10.204941 24.409454 14.30365 33.938553c4.098709 9.529083 7.570053 17.884613 10.414078 25.06662c1.2546997 2.9103699 2.593048 4.9992676 4.015045 6.2666626c1.4219971 1.3143616 3.1576843 1.9715271 5.2070312 1.9715271c1.7984009 0 3.3458862 -0.7276001 4.642395 -2.1827698c1.2965393 -1.4082336 2.321228 -3.2858582 3.0740356 -5.6329346l89.836945 -236.16156c1.7984314 -4.6471863 3.8477783 -8.895367 6.1480713 -12.744556c2.300293 -3.8961182 5.248871 -7.440178 8.845673 -10.632196c3.5968323 -3.1920013 8.092865 -5.4921303 13.488098 -6.9003677c2.593048 -1.1735382 5.227936 -2.2531815 7.9046326 -3.2389488c2.7185364 -1.0327053 4.07782 -2.839941 4.07782 -5.4217167c0 -2.9103613 -1.2965393 -4.7880096 -3.8895874 -5.6329527c-2.551239 -0.84494305 -5.6252747 -1.2674141 -9.222107 -1.2674141z" fill-rule="evenodd"/><path fill="#ffffff" d="m449.11212 33.1544c6.785034 0 12.693359 4.7824287 17.724976 14.347305c5.069702 9.502762 8.99588 22.35944 11.778503 38.570034c2.8207703 16.210587 4.23114 34.626053 4.23114 55.246437c0 17.949646 -0.5336609 33.508087 -1.6009827 46.675323c-1.0291748 13.167236 -2.9541626 23.570572 -5.7749023 31.210052c-2.3633118 6.4594116 -5.3556213 11.335022 -8.976837 14.626801c-3.6212158 3.2296753 -7.8904724 4.8445435 -12.807709 4.8445435c-6.3276367 0 -12.007233 -5.2482758 -17.038849 -15.744766c-5.0315857 -10.496506 -9.014954 -24.036407 -11.950043 -40.619644c-2.9351196 -16.645355 -4.402649 -34.129166 -4.402649 -52.451523c0 -20.558243 0.7623596 -37.886803 2.2870789 -51.985687c1.5247192 -14.160976 4.2882996 -25.061203 8.29071 -32.700676c2.3251953 -3.7886925 5.0125427 -6.738903 8.062012 -8.850613c3.0494385 -2.1117325 6.4419556 -3.1675873 10.177551 -3.1675873zm5.260315 -25.154366c-11.473572 0 -22.241974 3.6334085 -32.305176 10.900227c-10.063202 7.2046986 -18.849457 17.111164 -26.358734 29.719418c-7.4711914 12.608231 -13.322327 27.11082 -17.553436 43.50774c-4.23114 16.39692 -6.3466797 33.756554 -6.3466797 52.07885c0 22.918427 3.3353271 43.44565 10.006012 61.58162c6.7088013 18.073883 15.666595 32.26593 26.873352 42.576096c11.244873 10.310181 23.900116 15.465271 37.96573 15.465271c18.98285 0 34.725677 -6.179901 47.228455 -18.539688c12.540894 -12.421936 22.032288 -29.036255 28.474304 -49.84291c6.4419556 -20.806717 9.662964 -43.41458 9.662964 -67.82363c0 -21.3657 -3.449707 -41.11654 -10.349121 -59.25251c-6.899353 -18.135994 -16.219269 -32.731747 -27.959686 -43.78723c-11.702301 -11.055508 -24.814941 -16.58325 -39.337982 -16.58325z" fill-rule="evenodd"/><path stroke="#ffffff" stroke-width="1.0" stroke-linejoin="round" stroke-linecap="butt" d="m449.11212 33.1544c6.785034 0 12.693359 4.7824287 17.724976 14.347305c5.069702 9.502762 8.99588 22.35944 11.778503 38.570034c2.8207703 16.210587 4.23114 34.626053 4.23114 55.246437c0 17.949646 -0.5336609 33.508087 -1.6009827 46.675323c-1.0291748 13.167236 -2.9541626 23.570572 -5.7749023 31.210052c-2.3633118 6.4594116 -5.3556213 11.335022 -8.976837 14.626801c-3.6212158 3.2296753 -7.8904724 4.8445435 -12.807709 4.8445435c-6.3276367 0 -12.007233 -5.2482758 -17.038849 -15.744766c-5.0315857 -10.496506 -9.014954 -24.036407 -11.950043 -40.619644c-2.9351196 -16.645355 -4.402649 -34.129166 -4.402649 -52.451523c0 -20.558243 0.7623596 -37.886803 2.2870789 -51.985687c1.5247192 -14.160976 4.2882996 -25.061203 8.29071 -32.700676c2.3251953 -3.7886925 5.0125427 -6.738903 8.062012 -8.850613c3.0494385 -2.1117325 6.4419556 -3.1675873 10.177551 -3.1675873zm5.260315 -25.154366c-11.473572 0 -22.241974 3.6334085 -32.305176 10.900227c-10.063202 7.2046986 -18.849457 17.111164 -26.358734 29.719418c-7.4711914 12.608231 -13.322327 27.11082 -17.553436 43.50774c-4.23114 16.39692 -6.3466797 33.756554 -6.3466797 52.07885c0 22.918427 3.3353271 43.44565 10.006012 61.58162c6.7088013 18.073883 15.666595 32.26593 26.873352 42.576096c11.244873 10.310181 23.900116 15.465271 37.96573 15.465271c18.98285 0 34.725677 -6.179901 47.228455 -18.539688c12.540894 -12.421936 22.032288 -29.036255 28.474304 -49.84291c6.4419556 -20.806717 9.662964 -43.41458 9.662964 -67.82363c0 -21.3657 -3.449707 -41.11654 -10.349121 -59.25251c-6.899353 -18.135994 -16.219269 -32.731747 -27.959686 -43.78723c-11.702301 -11.055508 -24.814941 -16.58325 -39.337982 -16.58325z" fill-rule="evenodd"/><path fill="#ffffff" d="m475.424 276.13657c-13.361603 0 -25.444946 3.1365356 -36.25 9.409607c-10.805023 6.273041 -19.415314 14.968384 -25.83081 26.085999c-6.3672485 11.055511 -9.550903 24.00534 -9.550903 38.849518c0 14.16098 2.4359741 26.303406 7.307892 36.427246c4.920166 10.061768 11.239166 18.726044 18.957062 25.992859c7.7178955 7.266815 15.869934 13.757233 24.456085 19.471344c8.586151 5.714081 15.918152 11.925018 21.996002 18.632874c6.0778503 6.6457214 9.11676 14.937347 9.11676 24.874847c0 8.012146 -2.0741882 15.185791 -6.2225647 21.520966c-4.148346 6.2730713 -10.226196 9.409607 -18.23352 9.409607c-10.370911 0 -19.2706 -5.620941 -26.699066 -16.862762c-7.380249 -11.303925 -13.892212 -24.968018 -19.53592 -40.99228c-0.2894287 -1.9253845 -1.3265381 -3.8197327 -3.1112976 -5.6830444c-1.7847595 -1.925354 -3.8589478 -2.888092 -6.222534 -2.888092c-5.933136 0 -8.899689 2.2980347 -8.899689 6.894165c-0.2894287 13.353577 0.14468384 26.148163 1.3023682 38.383698c1.2059326 12.173462 3.1354065 21.117249 5.7884216 26.83133c7.4284973 6.894165 15.72522 11.862915 24.890228 14.906311c9.213226 3.043335 18.715881 4.5650635 28.507965 4.5650635c24.600769 0 43.196075 -6.956299 55.78589 -20.868835c12.589844 -13.912567 18.884705 -33.29074 18.884705 -58.134552c0 -19.812927 -4.1483765 -35.71295 -12.445068 -47.700104c-8.296753 -12.049286 -22.06836 -24.564362 -41.31485 -37.545227c-8.634399 -6.1488647 -15.845825 -12.359802 -21.634247 -18.632874c-5.7401733 -6.2730713 -8.61026 -13.415649 -8.61026 -21.427795c0 -9.19223 2.6530151 -16.459045 7.959076 -21.800446c5.3542786 -5.3414307 11.287415 -8.012146 17.799377 -8.012146c7.4284973 0 14.181641 3.726593 20.259491 11.179718c6.07782 7.4531555 11.022095 18.601837 14.832825 33.446014c0.6270752 1.9253845 2.0500488 3.8507996 4.2689514 5.776184c2.218872 1.9253845 4.3654175 2.888092 6.439636 2.888092c5.354248 0 8.031433 -2.1117249 8.031433 -6.3351746c0 -12.608246 -0.74768066 -24.160614 -2.243042 -34.657135c-1.4953003 -10.496521 -3.4248047 -17.63913 -5.788391 -21.427795c-2.9907227 -2.6707153 -8.634399 -5.434601 -16.931152 -8.291626c-8.296722 -2.8570557 -17.317017 -4.285553 -27.060852 -4.285553z" fill-rule="evenodd"/><path stroke="#ffffff" stroke-width="1.0" stroke-linejoin="round" stroke-linecap="butt" d="m475.424 276.13657c-13.361603 0 -25.444946 3.1365356 -36.25 9.409607c-10.805023 6.273041 -19.415314 14.968384 -25.83081 26.085999c-6.3672485 11.055511 -9.550903 24.00534 -9.550903 38.849518c0 14.16098 2.4359741 26.303406 7.307892 36.427246c4.920166 10.061768 11.239166 18.726044 18.957062 25.992859c7.7178955 7.266815 15.869934 13.757233 24.456085 19.471344c8.586151 5.714081 15.918152 11.925018 21.996002 18.632874c6.0778503 6.6457214 9.11676 14.937347 9.11676 24.874847c0 8.012146 -2.0741882 15.185791 -6.2225647 21.520966c-4.148346 6.2730713 -10.226196 9.409607 -18.23352 9.409607c-10.370911 0 -19.2706 -5.620941 -26.699066 -16.862762c-7.380249 -11.303925 -13.892212 -24.968018 -19.53592 -40.99228c-0.2894287 -1.9253845 -1.3265381 -3.8197327 -3.1112976 -5.6830444c-1.7847595 -1.925354 -3.8589478 -2.888092 -6.222534 -2.888092c-5.933136 0 -8.899689 2.2980347 -8.899689 6.894165c-0.2894287 13.353577 0.14468384 26.148163 1.3023682 38.383698c1.2059326 12.173462 3.1354065 21.117249 5.7884216 26.83133c7.4284973 6.894165 15.72522 11.862915 24.890228 14.906311c9.213226 3.043335 18.715881 4.5650635 28.507965 4.5650635c24.600769 0 43.196075 -6.956299 55.78589 -20.868835c12.589844 -13.912567 18.884705 -33.29074 18.884705 -58.134552c0 -19.812927 -4.1483765 -35.71295 -12.445068 -47.700104c-8.296753 -12.049286 -22.06836 -24.564362 -41.31485 -37.545227c-8.634399 -6.1488647 -15.845825 -12.359802 -21.634247 -18.632874c-5.7401733 -6.2730713 -8.61026 -13.415649 -8.61026 -21.427795c0 -9.19223 2.6530151 -16.459045 7.959076 -21.800446c5.3542786 -5.3414307 11.287415 -8.012146 17.799377 -8.012146c7.4284973 0 14.181641 3.726593 20.259491 11.179718c6.07782 7.4531555 11.022095 18.601837 14.832825 33.446014c0.6270752 1.9253845 2.0500488 3.8507996 4.2689514 5.776184c2.218872 1.9253845 4.3654175 2.888092 6.439636 2.888092c5.354248 0 8.031433 -2.1117249 8.031433 -6.3351746c0 -12.608246 -0.74768066 -24.160614 -2.243042 -34.657135c-1.4953003 -10.496521 -3.4248047 -17.63913 -5.788391 -21.427795c-2.9907227 -2.6707153 -8.634399 -5.434601 -16.931152 -8.291626c-8.296722 -2.8570557 -17.317017 -4.285553 -27.060852 -4.285553z" fill-rule="evenodd"/><path fill="#ffffff" d="m293.1813 352.0726c4.734619 0 9.526978 1.7973938 14.377045 5.3921814c4.8500977 3.5462036 8.872589 7.942505 12.067505 13.188934c3.1949158 5.1978455 4.7923584 10.492828 4.7923584 15.88501l0.34643555 98.95343c-3.3103943 4.4691772 -7.621582 7.893921 -12.933594 10.274231c-5.3120117 2.38031 -9.738678 3.5704956 -13.279999 3.5704956c-4.734619 0 -9.35376 -1.6273804 -13.857422 -4.88208c-4.503662 -3.3033447 -8.526154 -8.161133 -12.067474 -14.573425c-3.5413513 -6.4122925 -6.332062 -14.233368 -8.372192 -23.463165c-2.0016174 -9.278412 -3.0024414 -20.038452 -3.0024414 -32.28012c0 -15.204895 1.4819641 -28.102356 4.445923 -38.692383c2.9639282 -10.63858 6.8709717 -18.848267 11.721039 -24.629059c4.8500977 -5.8293457 10.10437 -8.744049 15.762817 -8.744049zm75.92703 -144.20384c-0.23095703 0 -0.9430542 0.24290466 -2.1363525 0.7286835c-1.1547852 0.43719482 -3.271881 1.5544891 -6.351288 3.351883c-5.9279175 3.254715 -13.568726 6.7523346 -22.922485 10.492844c-9.315247 3.740509 -18.361053 6.800934 -27.13742 9.181244c-2.57901 0.5829468 -3.8685303 2.8175201 -3.8685303 6.703766c0 3.5947876 1.4242554 5.829361 4.272705 6.703766c4.965576 1.2144623 8.5069275 4.226288 10.624023 9.035522c2.117096 4.76062 3.1756592 12.50882 3.1756592 23.244568l0 53.26581c0 3.8862305 -0.46191406 5.8293457 -1.3857422 5.8293457c0.23095703 0 -1.3087463 -0.4614563 -4.6191406 -1.3844604c-3.3103943 -1.165863 -6.928711 -2.1131287 -10.85498 -2.8417969c-3.8877563 -0.7772827 -7.6023254 -1.1658936 -11.143646 -1.1658936c-16.782867 0 -31.564087 4.566345 -44.343704 13.699005c-12.779617 9.084106 -22.730011 21.544373 -29.851166 37.3808c-7.082672 15.787842 -10.624008 33.834564 -10.624008 54.140198c0 17.00232 2.9639435 32.66873 8.89183 46.999237c5.927887 14.330505 14.030624 25.673462 24.308197 34.02887c10.277588 8.355408 22.037125 12.533142 35.27864 12.533142c9.700195 0 18.746002 -2.9875488 27.13742 -8.9626465c8.391449 -5.9750977 14.954468 -13.577545 19.689087 -22.807373l0 2.6960754c0 3.2547302 -0.17321777 6.8980713 -0.5196533 10.930054c-0.34643555 4.032013 -0.75061035 8.282562 -1.2125244 12.7517395c0 1.2144165 0.63513184 2.793213 1.9053955 4.736389c1.3087463 1.9430542 2.3287964 2.9146729 3.0601807 2.9146729c0.6928711 0 1.5012207 -0.24291992 2.4250488 -0.72869873c0.9623108 -0.43719482 2.1555786 -1.0930176 3.5798035 -1.9674072c8.7378845 -4.1777344 17.783691 -7.602478 27.13742 -10.274231c9.35376 -2.720398 18.284088 -4.663513 26.790985 -5.8294067c1.1932983 0 2.482788 -1.3358765 3.8685303 -4.00766c1.4242554 -2.7203674 2.1363525 -5.2707214 2.1363525 -7.6510315c0 -2.994995 -1.3606262 -4.4924927 -4.081909 -4.4924927c-0.28012085 0 -0.5746765 0.01586914 -0.883667 0.047607422c-5.4274597 0.2914734 -8.795593 0.58291626 -10.10434 0.87438965c-1.3087463 0.2914734 -2.5405273 0.43719482 -3.6953125 0.43719482c-3.0794373 0 -5.21579 -2.234558 -6.4090576 -6.703766c-1.1932678 -4.4691772 -1.789917 -11.780182 -1.789917 -21.932953l1.789917 -225.6692c0.23095703 -5.052109 0.46191406 -10.104233 0.6928711 -15.156342c0.2694397 -5.1006927 0.5196533 -9.205536 0.75061035 -12.314529c0.18087769 -2.4727783 0.29092407 -3.7091827 0.33013916 -3.7091827c0.010864258 0 0.016296387 0.094680786 0.016296387 0.2840271l0 0c-9.1552734E-5 -3.5944977 -1.3088379 -5.391754 -3.9262695 -5.391754z" fill-rule="evenodd"/><path stroke="#ffffff" stroke-width="1.0" stroke-linejoin="round" stroke-linecap="butt" d="m293.1813 352.0726c4.734619 0 9.526978 1.7973938 14.377045 5.3921814c4.8500977 3.5462036 8.872589 7.942505 12.067505 13.188934c3.1949158 5.1978455 4.7923584 10.492828 4.7923584 15.88501l0.34643555 98.95343c-3.3103943 4.4691772 -7.621582 7.893921 -12.933594 10.274231c-5.3120117 2.38031 -9.738678 3.5704956 -13.279999 3.5704956c-4.734619 0 -9.35376 -1.6273804 -13.857422 -4.88208c-4.503662 -3.3033447 -8.526154 -8.161133 -12.067474 -14.573425c-3.5413513 -6.4122925 -6.332062 -14.233368 -8.372192 -23.463165c-2.0016174 -9.278412 -3.0024414 -20.038452 -3.0024414 -32.28012c0 -15.204895 1.4819641 -28.102356 4.445923 -38.692383c2.9639282 -10.63858 6.8709717 -18.848267 11.721039 -24.629059c4.8500977 -5.8293457 10.10437 -8.744049 15.762817 -8.744049zm75.92703 -144.20384c-0.23095703 0 -0.9430542 0.24290466 -2.1363525 0.7286835c-1.1547852 0.43719482 -3.271881 1.5544891 -6.351288 3.351883c-5.9279175 3.254715 -13.568726 6.7523346 -22.922485 10.492844c-9.315247 3.740509 -18.361053 6.800934 -27.13742 9.181244c-2.57901 0.5829468 -3.8685303 2.8175201 -3.8685303 6.703766c0 3.5947876 1.4242554 5.829361 4.272705 6.703766c4.965576 1.2144623 8.5069275 4.226288 10.624023 9.035522c2.117096 4.76062 3.1756592 12.50882 3.1756592 23.244568l0 53.26581c0 3.8862305 -0.46191406 5.8293457 -1.3857422 5.8293457c0.23095703 0 -1.3087463 -0.4614563 -4.6191406 -1.3844604c-3.3103943 -1.165863 -6.928711 -2.1131287 -10.85498 -2.8417969c-3.8877563 -0.7772827 -7.6023254 -1.1658936 -11.143646 -1.1658936c-16.782867 0 -31.564087 4.566345 -44.343704 13.699005c-12.779617 9.084106 -22.730011 21.544373 -29.851166 37.3808c-7.082672 15.787842 -10.624008 33.834564 -10.624008 54.140198c0 17.00232 2.9639435 32.66873 8.89183 46.999237c5.927887 14.330505 14.030624 25.673462 24.308197 34.02887c10.277588 8.355408 22.037125 12.533142 35.27864 12.533142c9.700195 0 18.746002 -2.9875488 27.13742 -8.9626465c8.391449 -5.9750977 14.954468 -13.577545 19.689087 -22.807373l0 2.6960754c0 3.2547302 -0.17321777 6.8980713 -0.5196533 10.930054c-0.34643555 4.032013 -0.75061035 8.282562 -1.2125244 12.7517395c0 1.2144165 0.63513184 2.793213 1.9053955 4.736389c1.3087463 1.9430542 2.3287964 2.9146729 3.0601807 2.9146729c0.6928711 0 1.5012207 -0.24291992 2.4250488 -0.72869873c0.9623108 -0.43719482 2.1555786 -1.0930176 3.5798035 -1.9674072c8.7378845 -4.1777344 17.783691 -7.602478 27.13742 -10.274231c9.35376 -2.720398 18.284088 -4.663513 26.790985 -5.8294067c1.1932983 0 2.482788 -1.3358765 3.8685303 -4.00766c1.4242554 -2.7203674 2.1363525 -5.2707214 2.1363525 -7.6510315c0 -2.994995 -1.3606262 -4.4924927 -4.081909 -4.4924927c-0.28012085 0 -0.5746765 0.01586914 -0.883667 0.047607422c-5.4274597 0.2914734 -8.795593 0.58291626 -10.10434 0.87438965c-1.3087463 0.2914734 -2.5405273 0.43719482 -3.6953125 0.43719482c-3.0794373 0 -5.21579 -2.234558 -6.4090576 -6.703766c-1.1932678 -4.4691772 -1.789917 -11.780182 -1.789917 -21.932953l1.789917 -225.6692c0.23095703 -5.052109 0.46191406 -10.104233 0.6928711 -15.156342c0.2694397 -5.1006927 0.5196533 -9.205536 0.75061035 -12.314529c0.18087769 -2.4727783 0.29092407 -3.7091827 0.33013916 -3.7091827c0.010864258 0 0.016296387 0.094680786 0.016296387 0.2840271l0 0c-9.1552734E-5 -3.5944977 -1.3088379 -5.391754 -3.9262695 -5.391754z" fill-rule="evenodd"/><path fill="#ffffff" d="m129.11884 289.40683c-1.009018 0 -2.8028488 0.64630127 -5.3814697 1.9389648c-2.5786285 1.2338867 -4.736824 2.5852966 -6.474594 4.0542297c-9.305466 4.6417847 -20.60096 9.312958 -33.886482 14.013489c-13.229462 4.700531 -25.365814 8.490356 -36.409058 11.369446c-4.092167 1.1163635 -6.1382484 4.201111 -6.1382484 9.254181c0 3.2316284 0.6726837 5.4937744 2.018055 6.7864075c1.4014282 1.2338867 2.9429932 2.2033997 4.6247063 2.9084778c6.558674 1.8214417 10.790981 5.1705933 12.696922 10.047394c1.905941 4.8768005 2.8589096 11.1050415 2.8589096 18.684662l0 124.535034c0 5.4056396 -1.2893105 9.577393 -3.8679352 12.515198c-2.5786285 2.8790588 -7.679821 5.5818787 -15.303577 8.108429c-3.7558174 1.0576172 -6.67078 2.4090576 -8.7449 4.0542603c-2.0741081 1.5864258 -3.111166 3.8191528 -3.111166 6.698242c0 2.5265503 1.0370579 4.436096 3.111166 5.728821c2.0741081 1.2338867 4.484558 1.8508301 7.2313614 1.8508301c6.8950157 0 13.50975 -0.2644043 19.844196 -0.7932129c6.390503 -0.5288086 12.584808 -0.9694824 18.582909 -1.3220215c6.0541687 -0.3526001 12.024239 -0.5288696 17.910233 -0.5288696c8.913071 0 18.891228 0.44073486 29.934471 1.3220825c11.043228 0.88134766 21.722107 1.3220215 32.036606 1.3220215c5.8299255 0 8.744888 -2.5265503 8.744888 -7.579651c0 -2.8790894 -0.95295715 -5.1118164 -2.858902 -6.698242c-1.849884 -1.6452026 -4.680771 -2.996643 -8.492645 -4.0542603c-9.641815 -2.9378357 -16.62091 -6.110718 -20.937302 -9.518585c-4.2603455 -3.407898 -6.390518 -8.725372 -6.390518 -15.952484l0 -88.31146c0 -20.56488 3.2513123 -34.25522 9.753937 -41.070984c6.55867 -6.874542 14.322571 -10.311829 23.291702 -10.311829c2.7467957 0 5.7458496 0.8226013 8.997162 2.4677734c3.3073578 1.5864563 6.6707764 3.0847473 10.090271 4.4949036c3.475525 1.8214722 6.9230347 3.5548096 10.342514 5.1999817c3.4755402 1.6452026 6.754883 2.4677734 9.838013 2.4677734c5.157257 0 9.978165 -2.3502808 14.462723 -7.050812c4.4845734 -4.700531 8.184341 -10.28241 11.099304 -16.745667c2.9149628 -6.522003 4.372452 -12.515198 4.372452 -17.979584c0 -7.579651 -2.4945374 -13.690338 -7.4836273 -18.332123c-4.9890747 -4.700531 -13.50975 -7.050812 -25.562012 -7.050812c-7.9040375 0 -16.004288 2.3502808 -24.300735 7.050812c-8.240387 4.6417847 -15.892166 10.576202 -22.955353 17.803314c-7.063202 7.2270813 -13.173416 14.630432 -18.330658 22.210052c-1.4014282 0 -2.1021423 -1.6158142 -2.1021423 -4.8474426c0.33633423 -3.995453 0.5885925 -8.872253 0.7567749 -14.630432c0.16816711 -5.758148 0.33633423 -11.428192 0.50450134 -17.010101c0.2242279 -5.6406555 0.3363495 -9.342316 0.3363495 -11.105011c0 -3.9954834 -1.5695953 -5.9931946 -4.7088013 -5.9931946z" fill-rule="evenodd"/><path stroke="#ffffff" stroke-width="1.0" stroke-linejoin="round" stroke-linecap="butt" d="m129.11884 289.40683c-1.009018 0 -2.8028488 0.64630127 -5.3814697 1.9389648c-2.5786285 1.2338867 -4.736824 2.5852966 -6.474594 4.0542297c-9.305466 4.6417847 -20.60096 9.312958 -33.886482 14.013489c-13.229462 4.700531 -25.365814 8.490356 -36.409058 11.369446c-4.092167 1.1163635 -6.1382484 4.201111 -6.1382484 9.254181c0 3.2316284 0.6726837 5.4937744 2.018055 6.7864075c1.4014282 1.2338867 2.9429932 2.2033997 4.6247063 2.9084778c6.558674 1.8214417 10.790981 5.1705933 12.696922 10.047394c1.905941 4.8768005 2.8589096 11.1050415 2.8589096 18.684662l0 124.535034c0 5.4056396 -1.2893105 9.577393 -3.8679352 12.515198c-2.5786285 2.8790588 -7.679821 5.5818787 -15.303577 8.108429c-3.7558174 1.0576172 -6.67078 2.4090576 -8.7449 4.0542603c-2.0741081 1.5864258 -3.111166 3.8191528 -3.111166 6.698242c0 2.5265503 1.0370579 4.436096 3.111166 5.728821c2.0741081 1.2338867 4.484558 1.8508301 7.2313614 1.8508301c6.8950157 0 13.50975 -0.2644043 19.844196 -0.7932129c6.390503 -0.5288086 12.584808 -0.9694824 18.582909 -1.3220215c6.0541687 -0.3526001 12.024239 -0.5288696 17.910233 -0.5288696c8.913071 0 18.891228 0.44073486 29.934471 1.3220825c11.043228 0.88134766 21.722107 1.3220215 32.036606 1.3220215c5.8299255 0 8.744888 -2.5265503 8.744888 -7.579651c0 -2.8790894 -0.95295715 -5.1118164 -2.858902 -6.698242c-1.849884 -1.6452026 -4.680771 -2.996643 -8.492645 -4.0542603c-9.641815 -2.9378357 -16.62091 -6.110718 -20.937302 -9.518585c-4.2603455 -3.407898 -6.390518 -8.725372 -6.390518 -15.952484l0 -88.31146c0 -20.56488 3.2513123 -34.25522 9.753937 -41.070984c6.55867 -6.874542 14.322571 -10.311829 23.291702 -10.311829c2.7467957 0 5.7458496 0.8226013 8.997162 2.4677734c3.3073578 1.5864563 6.6707764 3.0847473 10.090271 4.4949036c3.475525 1.8214722 6.9230347 3.5548096 10.342514 5.1999817c3.4755402 1.6452026 6.754883 2.4677734 9.838013 2.4677734c5.157257 0 9.978165 -2.3502808 14.462723 -7.050812c4.4845734 -4.700531 8.184341 -10.28241 11.099304 -16.745667c2.9149628 -6.522003 4.372452 -12.515198 4.372452 -17.979584c0 -7.579651 -2.4945374 -13.690338 -7.4836273 -18.332123c-4.9890747 -4.700531 -13.50975 -7.050812 -25.562012 -7.050812c-7.9040375 0 -16.004288 2.3502808 -24.300735 7.050812c-8.240387 4.6417847 -15.892166 10.576202 -22.955353 17.803314c-7.063202 7.2270813 -13.173416 14.630432 -18.330658 22.210052c-1.4014282 0 -2.1021423 -1.6158142 -2.1021423 -4.8474426c0.33633423 -3.995453 0.5885925 -8.872253 0.7567749 -14.630432c0.16816711 -5.758148 0.33633423 -11.428192 0.50450134 -17.010101c0.2242279 -5.6406555 0.3363495 -9.342316 0.3363495 -11.105011c0 -3.9954834 -1.5695953 -5.9931946 -4.7088013 -5.9931946z" fill-rule="evenodd"/></g></svg>