<svg version="1.1" viewBox="0.0 0.0 512.0 512.0" fill="none" stroke="none" stroke-linecap="square" stroke-miterlimit="10" xmlns:xlink="http://www.w3.org/1999/xlink" xmlns="http://www.w3.org/2000/svg"><clipPath id="g2c5bb298eb1_0_0.0"><path d="m0 0l512.0 0l0 512.0l-512.0 0l0 -512.0z" clip-rule="nonzero"/></clipPath><g clip-path="url(#g2c5bb298eb1_0_0.0)"><path fill="#373647" d="m0 0l512.0 0l0 512.0l-512.0 0z" fill-rule="evenodd"/><path shape-rendering="crispEdges" fill="#efefef" d="m0 38.404198l128.0 0l0 108.797905l-128.0 0l0 -108.797905z" fill-rule="nonzero"/><path shape-rendering="crispEdges" fill="#efefef" d="m128.0 38.404198l128.0 0l0 108.797905l-128.0 0l0 -108.797905z" fill-rule="nonzero"/><path shape-rendering="crispEdges" fill="#efefef" d="m256.0 38.404198l128.0 0l0 108.797905l-128.0 0l0 -108.797905z" fill-rule="nonzero"/><path shape-rendering="crispEdges" fill="#efefef" d="m384.0 38.404198l128.0 0l0 108.797905l-128.0 0l0 -108.797905z" fill-rule="nonzero"/><path shape-rendering="crispEdges" fill="#373647" d="m0 147.2021l128.0 0l0 108.7979l-128.0 0l0 -108.7979z" fill-rule="nonzero"/><path shape-rendering="crispEdges" fill="#373647" d="m128.0 147.2021l128.0 0l0 108.7979l-128.0 0l0 -108.7979z" fill-rule="nonzero"/><path shape-rendering="crispEdges" fill="#373647" d="m256.0 147.2021l128.0 0l0 108.7979l-128.0 0l0 -108.7979z" fill-rule="nonzero"/><path shape-rendering="crispEdges" fill="#efefef" d="m384.0 147.2021l128.0 0l0 108.7979l-128.0 0l0 -108.7979z" fill-rule="nonzero"/><path shape-rendering="crispEdges" fill="#efefef" d="m0 256.0l128.0 0l0 108.79791l-128.0 0l0 -108.79791z" fill-rule="nonzero"/><path shape-rendering="crispEdges" fill="#efefef" d="m128.0 256.0l128.0 0l0 108.79791l-128.0 0l0 -108.79791z" fill-rule="nonzero"/><path shape-rendering="crispEdges" fill="#373647" d="m256.0 256.0l128.0 0l0 108.79791l-128.0 0l0 -108.79791z" fill-rule="nonzero"/><path shape-rendering="crispEdges" fill="#efefef" d="m384.0 256.0l128.0 0l0 108.79791l-128.0 0l0 -108.79791z" fill-rule="nonzero"/><path shape-rendering="crispEdges" fill="#efefef" d="m0 364.7979l128.0 0l0 108.79788l-128.0 0l0 -108.79788z" fill-rule="nonzero"/><path shape-rendering="crispEdges" fill="#efefef" d="m128.0 364.7979l128.0 0l0 108.79788l-128.0 0l0 -108.79788z" fill-rule="nonzero"/><path shape-rendering="crispEdges" fill="#efefef" d="m256.0 364.7979l128.0 0l0 108.79788l-128.0 0l0 -108.79788z" fill-rule="nonzero"/><path shape-rendering="crispEdges" fill="#efefef" d="m384.0 364.7979l128.0 0l0 108.79788l-128.0 0l0 -108.79788z" fill-rule="nonzero"/><path stroke="#373647" stroke-width="4.0" stroke-linecap="butt" d="m0 36.404198l0 439.1916" fill-rule="nonzero"/><path stroke="#373647" stroke-width="4.0" stroke-linecap="butt" d="m128.0 36.404198l0 439.1916" fill-rule="nonzero"/><path stroke="#373647" stroke-width="4.0" stroke-linecap="butt" d="m256.0 36.404198l0 439.1916" fill-rule="nonzero"/><path stroke="#373647" stroke-width="4.0" stroke-linecap="butt" d="m384.0 36.404198l0 439.1916" fill-rule="nonzero"/><path stroke="#373647" stroke-width="4.0" stroke-linecap="butt" d="m512.0 36.404198l0 439.1916" fill-rule="nonzero"/><path stroke="#373647" stroke-width="4.0" stroke-linecap="butt" d="m-2.0 38.404198l516.0 0" fill-rule="nonzero"/><path stroke="#373647" stroke-width="4.0" stroke-linecap="butt" d="m-2.0 147.2021l516.0 0" fill-rule="nonzero"/><path stroke="#373647" stroke-width="4.0" stroke-linecap="butt" d="m-2.0 256.0l516.0 0" fill-rule="nonzero"/><path stroke="#373647" stroke-width="4.0" stroke-linecap="butt" d="m-2.0 364.7979l516.0 0" fill-rule="nonzero"/><path stroke="#373647" stroke-width="4.0" stroke-linecap="butt" d="m-2.0 473.5958l516.0 0" fill-rule="nonzero"/><path fill="#373647" d="m69.16884 67.76419q9.234375 0 14.625 5.1875q5.390625 5.171875 5.390625 13.734375q0 8.515625 -5.390625 13.734375q-5.390625 5.203125 -14.625 5.203125l-14.046875 0l0 21.140625l-13.0 0l0 -59.0l27.046875 0zm-3.59375 27.765625q5.5625 0 8.28125 -2.09375q2.734375 -2.109375 2.734375 -6.75q0 -4.515625 -2.625 -6.671875q-2.625 -2.171875 -8.34375 -2.171875l-10.5 0l0 17.6875l10.453125 0z" fill-rule="nonzero"/><path fill="#373647" d="m178.32509 67.76419l13.796875 23.28125l13.71875 -23.28125l14.453125 0l-21.875 36.359375l0 22.640625l-13.0 0l0 -22.96875l-21.703125 -36.03125l14.609375 0z" fill-rule="nonzero"/><path fill="#373647" d="m326.79718 67.76419l22.078125 58.953125l-13.484375 0l-4.4375 -13.109375l-22.078125 0l-4.640625 13.15625l-13.109375 0l22.390625 -59.0l13.28125 0zm-6.859375 14.53125l-7.671875 21.671875l15.296875 0l-7.421875 -21.671875l-0.203125 0z" fill-rule="nonzero"/><path fill="#373647" d="m472.19263 67.76419l0 10.890625l-17.71875 0l0 48.109375l-12.953125 0l0 -48.109375l-17.671875 0l0 -10.890625l48.34375 0z" fill-rule="nonzero"/><path fill="#ececec" d="m68.80705 176.56209q9.03125 0 13.71875 3.578125q4.6875 3.5625 4.6875 10.984375q0 4.5625 -2.109375 7.546875q-2.09375 2.984375 -5.890625 4.8125q5.375 1.609375 8.09375 5.453125q2.71875 3.828125 2.71875 9.515625q0 8.15625 -5.890625 12.640625q-5.890625 4.46875 -14.5625 4.46875l-28.984375 0l0 -59.0l28.21875 0zm-1.859375 23.890625q3.46875 0 5.578125 -1.78125q2.125 -1.78125 2.125 -5.25q0 -3.46875 -2.1875 -5.125q-2.171875 -1.65625 -6.40625 -1.65625l-12.46875 0l0 13.8125l13.359375 0zm0.84375 25.015625q4.328125 0 6.78125 -1.890625q2.46875 -1.90625 2.46875 -5.859375q0 -4.15625 -2.328125 -6.296875q-2.3125 -2.140625 -6.71875 -2.140625l-14.40625 0l0 16.1875l14.203125 0z" fill-rule="nonzero"/><path fill="#ececec" d="m186.18929 176.56209l0 48.109375l28.78125 0l0 10.890625l-41.78125 0l0 -59.0l13.0 0z" fill-rule="nonzero"/><path fill="#ececec" d="m320.02554 175.14021q13.15625 0 21.078125 8.828125q7.9375 8.8125 7.9375 22.328125q0 13.203125 -7.96875 21.9375q-7.96875 8.734375 -21.046875 8.734375q-8.515625 0 -15.15625 -3.90625q-6.640625 -3.921875 -10.265625 -11.0q-3.609375 -7.078125 -3.609375 -15.765625q0 -13.640625 7.96875 -22.390625q7.984375 -8.765625 21.0625 -8.765625zm-16.0625 31.15625q0 8.71875 4.171875 14.234375q4.171875 5.5 11.890625 5.5q7.625 0 11.8125 -5.421875q4.203125 -5.421875 4.203125 -14.3125q0 -9.3125 -4.265625 -14.78125q-4.25 -5.46875 -11.84375 -5.46875q-7.546875 0 -11.765625 5.53125q-4.203125 5.515625 -4.203125 14.71875z" fill-rule="nonzero"/><path fill="#373647" d="m422.22693 176.56209l9.328125 40.15625l0.15625 0l10.25 -40.15625l12.15625 0l10.09375 40.640625l0.15625 0l9.6875 -40.640625l12.703125 0l-15.859375 59.0l-12.90625 0l-9.96875 -40.15625l-0.171875 0l-9.84375 40.15625l-13.15625 0l-15.625 -59.0l13.0 0z" fill-rule="nonzero"/><path fill="#373647" d="m64.76567 283.9381q9.609375 0 16.703125 5.5625q7.109375 5.546875 8.203125 15.265625l-12.390625 0q-1.25 -4.96875 -4.53125 -7.4375q-3.265625 -2.484375 -7.9375 -2.484375q-7.71875 0 -11.890625 5.59375q-4.171875 5.578125 -4.171875 14.65625q0 8.59375 4.125 14.171875q4.140625 5.5625 11.9375 5.5625q6.203125 0 9.8125 -3.15625q3.625 -3.171875 4.234375 -9.546875l-13.078125 0l0 -9.6875l24.8125 0l0 31.921875l-8.265625 0l-1.34375 -6.65625q-3.1875 4.0 -7.21875 6.03125q-4.03125 2.03125 -9.0 2.03125q-8.4375 0 -15.09375 -3.890625q-6.65625 -3.890625 -10.28125 -10.984375q-3.609375 -7.109375 -3.609375 -15.796875q0 -13.640625 7.953125 -22.390625q7.953125 -8.765625 21.03125 -8.765625z" fill-rule="nonzero"/><path fill="#373647" d="m178.47478 285.36l13.8125 40.5625l0.15625 0l13.03125 -40.40625l0.09375 -0.15625l18.1875 0l0 59.0l-12.140625 0l0 -41.8125l-0.15625 0l-14.453125 41.8125l-10.015625 0l-14.484375 -41.40625l-0.15625 0l0 41.40625l-12.15625 0l0 -59.0l18.28125 0z" fill-rule="nonzero"/><path fill="#efefef" d="m324.80707 285.36q9.03125 0 13.71875 3.578125q4.6875 3.5625 4.6875 10.984375q0 4.5625 -2.109375 7.546875q-2.09375 2.984375 -5.890625 4.8125q5.375 1.609375 8.09375 5.453125q2.71875 3.828125 2.71875 9.515625q0 8.15625 -5.890625 12.640625q-5.890625 4.46875 -14.5625 4.46875l-28.984375 0l0 -59.0l28.21875 0zm-1.859375 23.890625q3.46875 0 5.578125 -1.78125q2.125 -1.78125 2.125 -5.25q0 -3.46875 -2.1875 -5.125q-2.171875 -1.65625 -6.40625 -1.65625l-12.46875 0l0 13.8125l13.359375 0zm0.84375 25.015625q4.328125 0 6.78125 -1.890625q2.46875 -1.90625 2.46875 -5.859375q0 -4.15625 -2.328125 -6.296875q-2.3125 -2.140625 -6.71875 -2.140625l-14.40625 0l0 16.1875l14.203125 0z" fill-rule="nonzero"/><path fill="#373647" d="m456.01352 285.36q7.140625 0 12.046875 4.609375q4.90625 4.59375 4.90625 11.6875q0 5.578125 -2.328125 9.234375q-2.3125 3.640625 -7.046875 5.546875l0 0.15625q4.171875 1.09375 6.390625 4.96875q2.21875 3.875 2.421875 11.859375q0.15625 7.984375 2.296875 10.9375l-13.0 0q-1.125 -2.859375 -1.53125 -9.28125q-0.609375 -8.71875 -2.9375 -11.234375q-2.3125 -2.53125 -7.109375 -2.53125l-13.28125 0l0 23.046875l-13.0 0l0 -59.0l32.171875 0zm-4.6875 26.671875q4.078125 0 6.359375 -1.96875q2.28125 -1.984375 2.28125 -6.46875q0 -4.1875 -2.203125 -6.171875q-2.203125 -1.984375 -6.4375 -1.984375l-14.484375 0l0 16.59375l14.484375 0z" fill-rule="nonzero"/><path fill="#373647" d="m87.06522 394.1579l0 10.890625l-31.15625 0l0 12.640625l28.578125 0l0 10.078125l-28.578125 0l0 14.5l31.796875 0l0 10.890625l-44.796875 0l0 -59.0l44.15625 0z" fill-rule="nonzero"/><path fill="#373647" d="m198.79718 394.1579l22.078125 58.953125l-13.484375 0l-4.4375 -13.109375l-22.078125 0l-4.640625 13.15625l-13.109375 0l22.390625 -59.0l13.28125 0zm-6.859375 14.53125l-7.671875 21.671875l15.296875 0l-7.421875 -21.671875l-0.203125 0z" fill-rule="nonzero"/><path fill="#373647" d="m319.21237 392.73602q10.703125 0 17.15625 4.96875q6.453125 4.96875 6.453125 14.046875l-12.546875 0q-0.28125 -4.4375 -3.03125 -6.671875q-2.75 -2.25 -8.5625 -2.25q-3.953125 0 -6.484375 1.734375q-2.515625 1.734375 -2.515625 4.96875q0 2.21875 1.046875 3.3125q1.0625 1.078125 4.3125 2.28125q3.25 1.1875 14.1875 3.765625q7.34375 1.78125 11.453125 6.015625q4.125 4.234375 4.125 10.734375q0 8.5625 -6.421875 13.75q-6.421875 5.171875 -18.078125 5.171875q-11.140625 0 -18.171875 -5.484375q-7.015625 -5.484375 -7.015625 -15.171875l0 -0.328125l12.546875 0q0.078125 5.5 3.671875 8.203125q3.59375 2.703125 9.40625 2.703125q5.25 0 8.375 -1.921875q3.125 -1.921875 3.125 -5.421875q0 -2.875 -2.40625 -4.703125q-2.390625 -1.84375 -7.671875 -3.171875q-6.78125 -1.53125 -12.3125 -3.25q-5.53125 -1.71875 -9.140625 -5.5625q-3.609375 -3.859375 -3.609375 -9.875q0 -7.953125 6.34375 -12.890625q6.359375 -4.953125 15.765625 -4.953125z" fill-rule="nonzero"/><path fill="#373647" d="m448.92963 394.1579q11.78125 0 19.078125 7.6875q7.3125 7.6875 7.3125 21.484375q0 13.8125 -7.140625 21.828125q-7.140625 8.0 -19.25 8.0l-25.875 0l0 -59.0l25.875 0zm-1.015625 48.109375q6.21875 0 10.3125 -4.453125q4.09375 -4.46875 4.09375 -13.3125q0 -10.203125 -4.28125 -14.828125q-4.265625 -4.625 -12.375 -4.625l-9.609375 0l0 37.21875l11.859375 0z" fill-rule="nonzero"/></g></svg>
