<svg width="128" height="129" viewBox="0 0 128 129" fill="none" xmlns="http://www.w3.org/2000/svg">
<path d="M5.31653 49.7792C17.3796 38.4204 28.2153 33.655 41.5287 43.0608C54.842 52.4666 70.5516 53.5415 79.3384 47.0918C88.1252 40.6422 102.71 32.0784 116.616 44.4044" stroke="black" stroke-width="9" stroke-linecap="round"/>
<path d="M123.363 60.7315C125.444 60.7315 127.158 62.4266 126.867 64.4872C126.166 69.466 124.079 74.171 120.813 78.0365C116.735 82.8631 111.086 86.0649 104.881 87.0672C98.6748 88.0696 92.3182 86.8068 86.9517 83.5056C81.5852 80.2043 77.5602 75.0808 75.5989 69.0545C73.6377 63.0282 73.8687 56.4937 76.2504 50.6238C78.6322 44.7539 83.0088 39.9329 88.5948 37.0261C94.1807 34.1192 100.61 33.3169 106.73 34.763C111.632 35.9217 116.079 38.4631 119.57 42.0548C121.016 43.5426 120.641 45.9142 118.976 47.1517V47.1517C117.29 48.4048 114.927 48.0071 113.375 46.5909C111.018 44.4397 108.145 42.9089 105.011 42.1684C100.637 41.1346 96.0412 41.7082 92.0482 43.7861C88.0551 45.864 84.9266 49.3102 83.224 53.5062C81.5215 57.7022 81.3563 62.3733 82.7583 66.6811C84.1603 70.9888 87.0375 74.6513 90.8737 77.0111C94.7098 79.371 99.2537 80.2736 103.69 79.5571C108.126 78.8407 112.164 76.5519 115.079 73.1017C117.18 70.6142 118.599 67.6405 119.227 64.4754C119.632 62.4342 121.282 60.7315 123.363 60.7315V60.7315Z" fill="black"/>
<path d="M27.1503 38.4922V84.4462" stroke="black" stroke-width="9" stroke-linecap="round"/>
<path d="M57.7709 52.1978V84.4462" stroke="black" stroke-width="9" stroke-linecap="round"/>
<path d="M103.388 63.121H122.56" stroke="black" stroke-width="9" stroke-linecap="round"/>
</svg>
