<svg width="120" height="40" viewBox="0 0 120 40" fill="none" xmlns="http://www.w3.org/2000/svg">
<rect x="0.25" y="0.25" width="119.5" height="39.5" rx="4.75" fill="black"/>
<rect x="0.25" y="0.25" width="119.5" height="39.5" rx="4.75" stroke="white" stroke-width="0.5"/>
<path d="M41.6042 17V8.27273H45.0474C45.7093 8.27273 46.2733 8.39915 46.7392 8.65199C47.2051 8.90199 47.5602 9.25 47.8045 9.69602C48.0517 10.1392 48.1752 10.6506 48.1752 11.2301C48.1752 11.8097 48.0502 12.321 47.8002 12.7642C47.5502 13.2074 47.188 13.5526 46.7136 13.7997C46.242 14.0469 45.671 14.1705 45.0005 14.1705H42.8059V12.6918H44.7022C45.0574 12.6918 45.35 12.6307 45.5801 12.5085C45.813 12.3835 45.9863 12.2116 46.1 11.9929C46.2164 11.7713 46.2747 11.517 46.2747 11.2301C46.2747 10.9403 46.2164 10.6875 46.1 10.4716C45.9863 10.2528 45.813 10.0838 45.5801 9.96449C45.3471 9.84233 45.0517 9.78125 44.6937 9.78125H43.4494V17H41.6042ZM51.155 8.27273V17H49.3397V8.27273H51.155ZM54.4757 17.1236C54.0581 17.1236 53.6859 17.0511 53.3592 16.9062C53.0325 16.7585 52.774 16.5412 52.5836 16.2543C52.3961 15.9645 52.3024 15.6037 52.3024 15.1719C52.3024 14.8082 52.3691 14.5028 52.5027 14.2557C52.6362 14.0085 52.818 13.8097 53.0481 13.6591C53.2782 13.5085 53.5396 13.3949 53.8322 13.3182C54.1277 13.2415 54.4373 13.1875 54.7612 13.1562C55.1419 13.1165 55.4487 13.0795 55.6816 13.0455C55.9146 13.0085 56.0836 12.9545 56.1887 12.8835C56.2939 12.8125 56.3464 12.7074 56.3464 12.5682V12.5426C56.3464 12.2727 56.2612 12.0639 56.0907 11.9162C55.9231 11.7685 55.6845 11.6946 55.3748 11.6946C55.0481 11.6946 54.7882 11.767 54.595 11.9119C54.4018 12.054 54.274 12.233 54.2115 12.4489L52.5325 12.3125C52.6177 11.9148 52.7853 11.571 53.0353 11.2812C53.2853 10.9886 53.6078 10.7642 54.0027 10.608C54.4004 10.4489 54.8606 10.3693 55.3833 10.3693C55.747 10.3693 56.095 10.4119 56.4274 10.4972C56.7626 10.5824 57.0595 10.7145 57.318 10.8935C57.5794 11.0724 57.7853 11.3026 57.9359 11.5838C58.0865 11.8622 58.1618 12.196 58.1618 12.5852V17H56.4402V16.0923H56.389C56.2839 16.2969 56.1433 16.4773 55.9672 16.6335C55.791 16.7869 55.5794 16.9077 55.3322 16.9957C55.085 17.081 54.7995 17.1236 54.4757 17.1236ZM54.9956 15.8707C55.2626 15.8707 55.4984 15.8182 55.7029 15.7131C55.9075 15.6051 56.068 15.4602 56.1845 15.2784C56.301 15.0966 56.3592 14.8906 56.3592 14.6605V13.9659C56.3024 14.0028 56.2243 14.0369 56.1248 14.0682C56.0282 14.0966 55.9189 14.1236 55.7967 14.1491C55.6745 14.1719 55.5524 14.1932 55.4302 14.2131C55.3081 14.2301 55.1973 14.2457 55.0978 14.2599C54.8848 14.2912 54.6987 14.3409 54.5396 14.4091C54.3805 14.4773 54.2569 14.5696 54.1689 14.6861C54.0808 14.7997 54.0368 14.9418 54.0368 15.1122C54.0368 15.3594 54.1262 15.5483 54.3052 15.679C54.487 15.8068 54.7172 15.8707 54.9956 15.8707ZM60.4565 19.4545C60.2264 19.4545 60.0105 19.4361 59.8088 19.3991C59.6099 19.3651 59.4451 19.321 59.3145 19.267L59.7235 17.9119C59.9366 17.9773 60.1284 18.0128 60.2988 18.0185C60.4721 18.0241 60.6213 17.9844 60.7463 17.8991C60.8741 17.8139 60.9778 17.669 61.0574 17.4645L61.1639 17.1875L58.8159 10.4545H60.725L62.0801 15.2614H62.1483L63.5162 10.4545H65.438L62.894 17.7074C62.7718 18.0597 62.6056 18.3665 62.3954 18.6278C62.188 18.892 61.9252 19.0952 61.6071 19.2372C61.2889 19.3821 60.9054 19.4545 60.4565 19.4545ZM69.1444 17V10.4545H70.9597V17H69.1444ZM70.0563 9.6108C69.7864 9.6108 69.5549 9.52131 69.3617 9.34233C69.1713 9.16051 69.0762 8.94318 69.0762 8.69034C69.0762 8.44034 69.1713 8.22585 69.3617 8.04688C69.5549 7.86506 69.7864 7.77415 70.0563 7.77415C70.3262 7.77415 70.5563 7.86506 70.7466 8.04688C70.9398 8.22585 71.0364 8.44034 71.0364 8.69034C71.0364 8.94318 70.9398 9.16051 70.7466 9.34233C70.5563 9.52131 70.3262 9.6108 70.0563 9.6108ZM74.2292 13.2159V17H72.4139V10.4545H74.144V11.6094H74.2207C74.3656 11.2287 74.6085 10.9276 74.9494 10.706C75.2903 10.4815 75.7037 10.3693 76.1895 10.3693C76.644 10.3693 77.0403 10.4688 77.3784 10.6676C77.7164 10.8665 77.9792 11.1506 78.1667 11.5199C78.3542 11.8864 78.448 12.3239 78.448 12.8324V17H76.6326V13.1562C76.6355 12.7557 76.5332 12.4432 76.3258 12.2188C76.1184 11.9915 75.8329 11.8778 75.4693 11.8778C75.225 11.8778 75.0091 11.9304 74.8216 12.0355C74.6369 12.1406 74.492 12.294 74.3869 12.4957C74.2846 12.6946 74.2321 12.9347 74.2292 13.2159ZM22.9506 34.4545C22.7205 34.4545 22.5046 34.4361 22.3029 34.3991C22.104 34.3651 21.9393 34.321 21.8086 34.267L22.2177 32.9119C22.4308 32.9773 22.6225 33.0128 22.793 33.0185C22.9663 33.0241 23.1154 32.9844 23.2404 32.8991C23.3683 32.8139 23.4719 32.669 23.5515 32.4645L23.658 32.1875L21.31 25.4545H23.2191L24.5742 30.2614H24.6424L26.0103 25.4545H27.9322L25.3881 32.7074C25.266 33.0597 25.0998 33.3665 24.8896 33.6278C24.6822 33.892 24.4194 34.0952 24.1012 34.2372C23.783 34.3821 23.3995 34.4545 22.9506 34.4545ZM31.6076 32.1278C30.9457 32.1278 30.3732 31.9872 29.8903 31.706C29.4102 31.4219 29.0394 31.027 28.7781 30.5213C28.5167 30.0128 28.386 29.4233 28.386 28.7528C28.386 28.0767 28.5167 27.4858 28.7781 26.9801C29.0394 26.4716 29.4102 26.0767 29.8903 25.7955C30.3732 25.5114 30.9457 25.3693 31.6076 25.3693C32.2695 25.3693 32.8406 25.5114 33.3207 25.7955C33.8036 26.0767 34.1758 26.4716 34.4371 26.9801C34.6985 27.4858 34.8292 28.0767 34.8292 28.7528C34.8292 29.4233 34.6985 30.0128 34.4371 30.5213C34.1758 31.027 33.8036 31.4219 33.3207 31.706C32.8406 31.9872 32.2695 32.1278 31.6076 32.1278ZM31.6161 30.7216C31.9173 30.7216 32.1687 30.6364 32.3704 30.4659C32.5721 30.2926 32.7241 30.0568 32.8263 29.7585C32.9315 29.4602 32.984 29.1207 32.984 28.7401C32.984 28.3594 32.9315 28.0199 32.8263 27.7216C32.7241 27.4233 32.5721 27.1875 32.3704 27.0142C32.1687 26.8409 31.9173 26.7543 31.6161 26.7543C31.3121 26.7543 31.0565 26.8409 30.8491 27.0142C30.6445 27.1875 30.4897 27.4233 30.3846 27.7216C30.2823 28.0199 30.2312 28.3594 30.2312 28.7401C30.2312 29.1207 30.2823 29.4602 30.3846 29.7585C30.4897 30.0568 30.6445 30.2926 30.8491 30.4659C31.0565 30.6364 31.3121 30.7216 31.6161 30.7216ZM40.207 29.2131V25.4545H42.0224V32H40.2795V30.8111H40.2113C40.0636 31.1946 39.8178 31.5028 39.4741 31.7358C39.1332 31.9687 38.717 32.0852 38.2255 32.0852C37.788 32.0852 37.4031 31.9858 37.0707 31.7869C36.7383 31.5881 36.4783 31.3054 36.2908 30.9389C36.1062 30.5724 36.0124 30.1335 36.0096 29.6222V25.4545H37.8249V29.2983C37.8278 29.6847 37.9315 29.9901 38.136 30.2145C38.3406 30.4389 38.6147 30.5511 38.9585 30.5511C39.1772 30.5511 39.3817 30.5014 39.5721 30.402C39.7624 30.2997 39.9158 30.1491 40.0323 29.9503C40.1516 29.7514 40.2099 29.5057 40.207 29.2131ZM43.4744 32V25.4545H45.2344V26.5966H45.3026C45.4219 26.1903 45.6222 25.8835 45.9034 25.6761C46.1847 25.4659 46.5085 25.3608 46.875 25.3608C46.9659 25.3608 47.0639 25.3665 47.169 25.3778C47.2741 25.3892 47.3665 25.4048 47.446 25.4247V27.0355C47.3608 27.0099 47.2429 26.9872 47.0923 26.9673C46.9418 26.9474 46.804 26.9375 46.679 26.9375C46.4119 26.9375 46.1733 26.9957 45.9631 27.1122C45.7557 27.2259 45.5909 27.3849 45.4688 27.5895C45.3494 27.794 45.2898 28.0298 45.2898 28.2969V32H43.4744ZM51.196 32V23.2727H53.0114V26.554H53.0668C53.1463 26.3778 53.2614 26.1989 53.4119 26.017C53.5653 25.8324 53.7642 25.679 54.0085 25.5568C54.2557 25.4318 54.5625 25.3693 54.929 25.3693C55.4063 25.3693 55.8466 25.4943 56.25 25.7443C56.6534 25.9915 56.9759 26.3651 57.2173 26.8651C57.4588 27.3622 57.5795 27.9858 57.5795 28.7358C57.5795 29.4659 57.4616 30.0824 57.2259 30.5852C56.9929 31.0852 56.6747 31.4645 56.2713 31.723C55.8707 31.9787 55.4219 32.1065 54.9247 32.1065C54.5724 32.1065 54.2727 32.0483 54.0256 31.9318C53.7812 31.8153 53.581 31.669 53.4247 31.4929C53.2685 31.3139 53.1491 31.1335 53.0668 30.9517H52.9858V32H51.196ZM52.973 28.7273C52.973 29.1165 53.027 29.456 53.1349 29.7457C53.2429 30.0355 53.3991 30.2614 53.6037 30.4233C53.8082 30.5824 54.0568 30.6619 54.3494 30.6619C54.6449 30.6619 54.8949 30.581 55.0994 30.419C55.304 30.2543 55.4588 30.027 55.5639 29.7372C55.6719 29.4446 55.7259 29.108 55.7259 28.7273C55.7259 28.3494 55.6733 28.017 55.5682 27.7301C55.4631 27.4432 55.3082 27.2187 55.1037 27.0568C54.8991 26.8949 54.6477 26.8139 54.3494 26.8139C54.054 26.8139 53.804 26.892 53.5994 27.0483C53.3977 27.2045 53.2429 27.4261 53.1349 27.7131C53.027 28 52.973 28.3381 52.973 28.7273ZM58.7908 32V25.4545H60.5508V26.5966H60.619C60.7383 26.1903 60.9386 25.8835 61.2198 25.6761C61.5011 25.4659 61.8249 25.3608 62.1914 25.3608C62.2823 25.3608 62.3803 25.3665 62.4854 25.3778C62.5906 25.3892 62.6829 25.4048 62.7624 25.4247V27.0355C62.6772 27.0099 62.5593 26.9872 62.4087 26.9673C62.2582 26.9474 62.1204 26.9375 61.9954 26.9375C61.7283 26.9375 61.4897 26.9957 61.2795 27.1122C61.0721 27.2259 60.9073 27.3849 60.7852 27.5895C60.6658 27.794 60.6062 28.0298 60.6062 28.2969V32H58.7908ZM66.3537 32.1278C65.6918 32.1278 65.1193 31.9872 64.6364 31.706C64.1563 31.4219 63.7855 31.027 63.5241 30.5213C63.2628 30.0128 63.1321 29.4233 63.1321 28.7528C63.1321 28.0767 63.2628 27.4858 63.5241 26.9801C63.7855 26.4716 64.1563 26.0767 64.6364 25.7955C65.1193 25.5114 65.6918 25.3693 66.3537 25.3693C67.0156 25.3693 67.5866 25.5114 68.0668 25.7955C68.5497 26.0767 68.9219 26.4716 69.1832 26.9801C69.4446 27.4858 69.5753 28.0767 69.5753 28.7528C69.5753 29.4233 69.4446 30.0128 69.1832 30.5213C68.9219 31.027 68.5497 31.4219 68.0668 31.706C67.5866 31.9872 67.0156 32.1278 66.3537 32.1278ZM66.3622 30.7216C66.6634 30.7216 66.9148 30.6364 67.1165 30.4659C67.3182 30.2926 67.4702 30.0568 67.5724 29.7585C67.6776 29.4602 67.7301 29.1207 67.7301 28.7401C67.7301 28.3594 67.6776 28.0199 67.5724 27.7216C67.4702 27.4233 67.3182 27.1875 67.1165 27.0142C66.9148 26.8409 66.6634 26.7543 66.3622 26.7543C66.0582 26.7543 65.8026 26.8409 65.5952 27.0142C65.3906 27.1875 65.2358 27.4233 65.1307 27.7216C65.0284 28.0199 64.9773 28.3594 64.9773 28.7401C64.9773 29.1207 65.0284 29.4602 65.1307 29.7585C65.2358 30.0568 65.3906 30.2926 65.5952 30.4659C65.8026 30.6364 66.0582 30.7216 66.3622 30.7216ZM71.8828 32L70.1016 25.4545H71.9382L72.9524 29.8523H73.0121L74.0689 25.4545H75.8714L76.9453 29.8267H77.0007L77.9979 25.4545H79.8303L78.0533 32H76.1314L75.0064 27.8835H74.9254L73.8004 32H71.8828ZM86.2447 27.321L84.5827 27.4233C84.5543 27.2812 84.4933 27.1534 84.3995 27.0398C84.3058 26.9233 84.1822 26.831 84.0288 26.7628C83.8782 26.6918 83.6978 26.6562 83.4876 26.6562C83.2063 26.6562 82.9691 26.7159 82.7759 26.8352C82.5827 26.9517 82.4862 27.108 82.4862 27.304C82.4862 27.4602 82.5487 27.5923 82.6737 27.7003C82.7987 27.8082 83.0131 27.8949 83.3171 27.9602L84.5018 28.1989C85.1381 28.3295 85.6126 28.5398 85.9251 28.8295C86.2376 29.1193 86.3938 29.5 86.3938 29.9716C86.3938 30.4006 86.2674 30.777 86.0146 31.1009C85.7646 31.4247 85.4208 31.6776 84.9833 31.8594C84.5487 32.0384 84.0472 32.1278 83.479 32.1278C82.6126 32.1278 81.9222 31.9474 81.408 31.5866C80.8967 31.223 80.5969 30.7287 80.5089 30.1037L82.2944 30.0099C82.3484 30.2741 82.479 30.4759 82.6864 30.6151C82.8938 30.7514 83.1594 30.8196 83.4833 30.8196C83.8015 30.8196 84.0572 30.7585 84.2504 30.6364C84.4464 30.5114 84.5458 30.3509 84.5487 30.1548C84.5458 29.9901 84.4762 29.8551 84.3398 29.75C84.2035 29.642 83.9933 29.5597 83.7092 29.5028L82.5756 29.277C81.9364 29.1491 81.4606 28.9276 81.1481 28.6122C80.8384 28.2969 80.6836 27.8949 80.6836 27.4062C80.6836 26.9858 80.7972 26.6236 81.0245 26.3196C81.2546 26.0156 81.5771 25.7812 81.9918 25.6165C82.4094 25.4517 82.8981 25.3693 83.4577 25.3693C84.2844 25.3693 84.935 25.544 85.4094 25.8935C85.8867 26.2429 86.1651 26.7187 86.2447 27.321ZM90.5199 32.1278C89.8466 32.1278 89.267 31.9915 88.7812 31.7188C88.2983 31.4432 87.9261 31.054 87.6648 30.5511C87.4034 30.0455 87.2727 29.4474 87.2727 28.7571C87.2727 28.0838 87.4034 27.4929 87.6648 26.9844C87.9261 26.4759 88.294 26.0795 88.7685 25.7955C89.2457 25.5114 89.8054 25.3693 90.4474 25.3693C90.8793 25.3693 91.2813 25.4389 91.6534 25.5781C92.0284 25.7145 92.3551 25.9205 92.6335 26.196C92.9148 26.4716 93.1335 26.8182 93.2898 27.2358C93.446 27.6506 93.5241 28.1364 93.5241 28.6932V29.1918H87.9972V28.0668H91.8153C91.8153 27.8054 91.7585 27.5739 91.6449 27.3722C91.5313 27.1705 91.3736 27.0128 91.1719 26.8991C90.973 26.7827 90.7415 26.7244 90.4773 26.7244C90.2017 26.7244 89.9574 26.7884 89.7443 26.9162C89.5341 27.0412 89.3693 27.2102 89.25 27.4233C89.1307 27.6335 89.0696 27.8679 89.0668 28.1264V29.196C89.0668 29.5199 89.1264 29.7997 89.2457 30.0355C89.3679 30.2713 89.5398 30.4531 89.7614 30.581C89.983 30.7088 90.2457 30.7727 90.5497 30.7727C90.7514 30.7727 90.9361 30.7443 91.1037 30.6875C91.2713 30.6307 91.4148 30.5455 91.5341 30.4318C91.6534 30.3182 91.7443 30.179 91.8068 30.0142L93.4858 30.125C93.4006 30.5284 93.2259 30.8807 92.9616 31.1818C92.7003 31.4801 92.3622 31.7131 91.9474 31.8807C91.5355 32.0455 91.0597 32.1278 90.5199 32.1278ZM94.7088 32V25.4545H96.4688V26.5966H96.5369C96.6563 26.1903 96.8565 25.8835 97.1378 25.6761C97.419 25.4659 97.7429 25.3608 98.1094 25.3608C98.2003 25.3608 98.2983 25.3665 98.4034 25.3778C98.5085 25.3892 98.6009 25.4048 98.6804 25.4247V27.0355C98.5952 27.0099 98.4773 26.9872 98.3267 26.9673C98.1761 26.9474 98.0384 26.9375 97.9134 26.9375C97.6463 26.9375 97.4077 26.9957 97.1974 27.1122C96.9901 27.2259 96.8253 27.3849 96.7031 27.5895C96.5838 27.794 96.5241 28.0298 96.5241 28.2969V32H94.7088Z" fill="white"/>
</svg>
