<svg height='100px' width='100px'  fill="#68B4FF" xmlns:dc="http://purl.org/dc/elements/1.1/" xmlns:cc="http://creativecommons.org/ns#" xmlns:rdf="http://www.w3.org/1999/02/22-rdf-syntax-ns#" xmlns:svg="http://www.w3.org/2000/svg" xmlns="http://www.w3.org/2000/svg" xmlns:sodipodi="http://sodipodi.sourceforge.net/DTD/sodipodi-0.dtd" xmlns:inkscape="http://www.inkscape.org/namespaces/inkscape" version="1.1" x="0px" y="0px" viewBox="0 0 100 100"><g transform="translate(0,-952.36218)"><path style="color:#000000;enable-background:accumulate;" d="m 18,966.3622 0,58 c 12.793163,-0.069 22.32638,6.9097 30,13.3125 l 0,-59.31252 C 39.508362,971.24463 29.963324,966.3513 18,966.3622 z m 64,0 c -11.963324,-0.0109 -21.508362,4.88243 -30,11.99998 l 0,59.31252 c 7.67362,-6.4027 17.206837,-13.3814 30,-13.3125 z m -74,8 0,58 35,6 c -6.651752,-5.0153 -15.042675,-10.054 -25,-10 l -2,0 c -1.047169,-10e-5 -1.999895,-0.9529 -2,-2 l 0,-2 0,-49.15625 z m 84,0 -6,0.84375 0,49.15625 0,2 c -1.05e-4,1.0472 -0.952831,1.9999 -2,2 l -2,0 c -9.957325,-0.054 -18.348248,4.9847 -25,10 l 35,-6 z" fill="#68B4FF" stroke="none" marker="none" visibility="visible" display="inline" overflow="visible"></path></g></svg>