<svg version="1.1" viewBox="0.0 0.0 512.0 512.0" fill="none" stroke="none" stroke-linecap="square" stroke-miterlimit="10" xmlns:xlink="http://www.w3.org/1999/xlink" xmlns="http://www.w3.org/2000/svg"><clipPath id="g29ee600fc8b_0_17.0"><path d="m0 0l512.0 0l0 512.0l-512.0 0l0 -512.0z" clip-rule="nonzero"/></clipPath><g clip-path="url(#g29ee600fc8b_0_17.0)"><path fill="#595959" d="m0 0l512.0 0l0 512.0l-512.0 0z" fill-rule="evenodd"/><defs><linearGradient id="g29ee600fc8b_0_17.1" gradientUnits="userSpaceOnUse" gradientTransform="matrix(17.169873149824287 0.0 0.0 17.169873149824287 0.0 0.0)" spreadMethod="pad" x1="7.34459748107718" y1="18.25613153127069" x2="7.344786173758137" y2="1.0862583824832435"><stop offset="0.0" stop-color="#262481"/><stop offset="1.0" stop-color="#045962"/></linearGradient></defs><path fill="url(#g29ee600fc8b_0_17.1)" d="m0.56250817 39.575222l0 0c0 -11.556173 9.368129 -20.924303 20.924303 -20.924303l83.6947 0l0 0c5.549469 0 10.871651 2.2045174 14.795715 6.128586c3.9240723 3.9240685 6.128586 9.246248 6.128586 14.795717l0 252.95453c0 11.556183 -9.368126 20.924316 -20.924301 20.924316l-83.6947 0c-11.556173 0 -20.924303 -9.368134 -20.924303 -20.924316z" fill-rule="evenodd"/><defs><linearGradient id="g29ee600fc8b_0_17.2" gradientUnits="userSpaceOnUse" gradientTransform="matrix(20.624152930019 0.0 0.0 20.624152930019 0.0 0.0)" spreadMethod="pad" x1="24.84260940699295" y1="21.52847703354766" x2="24.842836092513863" y2="0.9043241047744414"><stop offset="0.0" stop-color="#262481"/><stop offset="1.0" stop-color="#045962"/></linearGradient></defs><path fill="url(#g29ee600fc8b_0_17.2)" d="m386.81448 39.575222l0 0c0 -11.556173 9.368134 -20.924303 20.924286 -20.924303l83.6947 0l0 0c5.549469 0 10.871643 2.2045174 14.795715 6.128586c3.9240723 3.9240685 6.128601 9.246248 6.128601 14.795717l0 383.5057c0 11.556183 -9.368134 20.924316 -20.924316 20.924316l-83.6947 0c-11.556152 0 -20.924286 -9.368134 -20.924286 -20.924316z" fill-rule="evenodd"/><defs><linearGradient id="g29ee600fc8b_0_17.3" gradientUnits="userSpaceOnUse" gradientTransform="matrix(17.16987255269554 0.0 0.0 17.16987255269554 0.0 0.0)" spreadMethod="pad" x1="22.342179162312995" y1="18.256130971919514" x2="22.342367855000514" y2="1.0862584202608159"><stop offset="0.0" stop-color="#262481"/><stop offset="1.0" stop-color="#045962"/></linearGradient></defs><path fill="url(#g29ee600fc8b_0_17.3)" d="m258.06906 39.575222l0 0c0 -11.556173 9.368134 -20.924303 20.924316 -20.924303l83.6947 0l0 0c5.549469 0 10.871643 2.2045174 14.795715 6.128586c3.9240723 3.9240685 6.1285706 9.246248 6.1285706 14.795717l0 252.95453c0 11.556183 -9.368134 20.924316 -20.924286 20.924316l-83.6947 0c-11.556183 0 -20.924316 -9.368134 -20.924316 -20.924316z" fill-rule="evenodd"/><defs><linearGradient id="g29ee600fc8b_0_17.4" gradientUnits="userSpaceOnUse" gradientTransform="matrix(12.547915873114755 0.0 0.0 12.547915873114755 0.0 0.0)" spreadMethod="pad" x1="20.310871622738663" y1="14.034291683595823" x2="20.311008891824805" y2="1.4863758112319019"><stop offset="0.0" stop-color="#262481"/><stop offset="1.0" stop-color="#045962"/></linearGradient></defs><path fill="url(#g29ee600fc8b_0_17.4)" d="m129.3158 39.575222l0 0c0 -11.556173 9.368118 -20.924303 20.924301 -20.924303l83.6947 0l0 0c5.549469 0 10.871643 2.2045174 14.795715 6.128586c3.924057 3.9240685 6.128586 9.246248 6.128586 14.795717l0 115.600204c0 11.556183 -9.368134 20.924301 -20.924301 20.924301l-83.6947 0c-11.556183 0 -20.924301 -9.368118 -20.924301 -20.924301z" fill-rule="evenodd"/><path fill="#a5061e" d="m0.5782562 421.69028l0 0c0 -34.667816 28.103827 -62.771637 62.771656 -62.771637l0 0c16.648075 0 32.614292 6.6134033 44.386257 18.385376c11.771973 11.771973 18.385399 27.73819 18.385399 44.38626l0 0c0 34.667847 -28.103828 62.771667 -62.771656 62.771667l0 0c-34.667828 0 -62.771656 -28.10382 -62.771656 -62.771667z" fill-rule="evenodd"/><path fill="#eeeeee" d="m86.220184 452.4659q0 0.484375 -0.171875 0.8125q-0.171875 0.328125 -0.828125 0.546875q-0.65625 0.21875 -1.921875 0.296875q-1.265625 0.09375 -3.4375 0.09375q-1.828125 0 -2.921875 -0.09375q-1.09375 -0.078125 -1.734375 -0.3125q-0.625 -0.25 -0.890625 -0.625q-0.25 -0.375 -0.4375 -0.890625l-5.046875 -12.609375q-0.921875 -2.140625 -1.796875 -3.796875q-0.875 -1.65625 -1.9375 -2.765625q-1.0625 -1.109375 -2.46875 -1.671875q-1.390625 -0.578125 -3.21875 -0.578125l-3.578125 0l0 21.515625q0 0.421875 -0.296875 0.78125q-0.28125 0.34375 -0.9375 0.5625q-0.640625 0.21875 -1.734375 0.34375q-1.09375 0.140625 -2.796875 0.140625q-1.65625 0 -2.765625 -0.140625q-1.109375 -0.125 -1.765625 -0.34375q-0.65625 -0.21875 -0.921875 -0.5625q-0.25 -0.359375 -0.25 -0.78125l0 -51.265625q0 -1.90625 0.96875 -2.75q0.984375 -0.859375 2.421875 -0.859375l14.609375 0q2.234375 0 3.671875 0.09375q1.4375 0.078125 2.609375 0.203125q3.40625 0.484375 6.125 1.671875q2.734375 1.171875 4.625 3.078125q1.90625 1.890625 2.90625 4.484375q1.0 2.59375 1.0 5.953125q0 2.828125 -0.71875 5.171875q-0.71875 2.328125 -2.109375 4.15625q-1.390625 1.828125 -3.453125 3.1875q-2.046875 1.34375 -4.65625 2.1875q1.265625 0.609375 2.375 1.484375q1.109375 0.859375 2.09375 2.109375q0.984375 1.234375 1.84375 2.828125q0.875 1.59375 1.703125 3.609375l4.765625 11.109375q0.65625 1.65625 0.859375 2.421875q0.21875 0.765625 0.21875 1.203125zm-14.78125 -38.296875q0 -2.796875 -1.265625 -4.703125q-1.265625 -1.921875 -4.140625 -2.703125q-0.875 -0.21875 -1.984375 -0.34375q-1.109375 -0.140625 -3.078125 -0.140625l-5.140625 0l0 16.0l5.84375 0q2.4375 0 4.265625 -0.578125q1.84375 -0.59375 3.0625 -1.65625q1.21875 -1.078125 1.828125 -2.5625q0.609375 -1.484375 0.609375 -3.3125z" fill-rule="nonzero"/><path fill="#a5061e" d="m129.32367 421.69028l0 0c0 -34.667816 28.10382 -62.771637 62.771652 -62.771637l0 0c16.648071 0 32.61429 6.6134033 44.38626 18.385376c11.771957 11.771973 18.385391 27.73819 18.385391 44.38626l0 0c0 34.667847 -28.103836 62.771667 -62.771652 62.771667l0 0c-34.66783 0 -62.771652 -28.10382 -62.771652 -62.771667z" fill-rule="evenodd"/><path fill="#eeeeee" d="m216.97163 424.9034q0 7.765625 -2.03125 13.28125q-2.015625 5.515625 -5.8125 9.015625q-3.796875 3.484375 -9.234375 5.125q-5.421875 1.625 -12.921875 1.625l-13.484375 0q-1.4375 0 -2.421875 -0.84375q-0.96875 -0.859375 -0.96875 -2.78125l0 -49.203125q0 -1.90625 0.96875 -2.75q0.984375 -0.859375 2.421875 -0.859375l14.484375 0q7.546875 0 12.796875 1.765625q5.265625 1.765625 8.859375 5.234375q3.59375 3.46875 5.46875 8.578125q1.875 5.09375 1.875 11.8125zm-11.859375 0.390625q0 -4.015625 -0.9375 -7.453125q-0.9375 -3.453125 -3.015625 -5.984375q-2.0625 -2.53125 -5.3125 -3.9375q-3.25 -1.421875 -8.53125 -1.421875l-5.796875 0l0 38.375l5.96875 0q4.71875 0 7.9375 -1.21875q3.234375 -1.21875 5.390625 -3.671875q2.15625 -2.46875 3.21875 -6.125q1.078125 -3.671875 1.078125 -8.5625z" fill-rule="nonzero"/><path fill="#a5061e" d="m258.06906 421.69028l0 0c0 -34.667816 28.10382 -62.771637 62.771667 -62.771637l0 0c16.648071 0 32.61429 6.6134033 44.38626 18.385376c11.771973 11.771973 18.385376 27.73819 18.385376 44.38626l0 0c0 34.667847 -28.10382 62.771667 -62.771637 62.771667l0 0c-34.667847 0 -62.771667 -28.10382 -62.771667 -62.771667z" fill-rule="evenodd"/><path fill="#eeeeee" d="m339.11072 449.1534q0 1.3125 -0.109375 2.203125q-0.109375 0.890625 -0.328125 1.484375q-0.21875 0.59375 -0.546875 0.859375q-0.3125 0.25 -0.75 0.25l-25.875 0q-1.4375 0 -2.421875 -0.84375q-0.96875 -0.859375 -0.96875 -2.78125l0 -51.25q0 -0.4375 0.28125 -0.78125q0.28125 -0.34375 0.9375 -0.5625q0.65625 -0.21875 1.765625 -0.34375q1.109375 -0.140625 2.765625 -0.140625q1.703125 0 2.796875 0.140625q1.09375 0.125 1.734375 0.34375q0.65625 0.21875 0.9375 0.5625q0.296875 0.34375 0.296875 0.78125l0 45.40625l17.75 0q0.4375 0 0.75 0.25q0.328125 0.234375 0.546875 0.78125q0.21875 0.546875 0.328125 1.4375q0.109375 0.890625 0.109375 2.203125z" fill-rule="nonzero"/><path fill="#080691" d="m386.81448 421.69028l0 0c0 -34.667816 28.10382 -62.771637 62.771637 -62.771637l0 0c16.648102 0 32.61429 6.6134033 44.38626 18.385376c11.771973 11.771973 18.385406 27.73819 18.385406 44.38626l0 0c0 34.667847 -28.10382 62.771667 -62.771667 62.771667l0 0c-34.667816 0 -62.771637 -28.10382 -62.771637 -62.771667z" fill-rule="evenodd"/><path fill="#eeeeee" d="m467.8561 449.1534q0 1.3125 -0.109375 2.203125q-0.109375 0.890625 -0.328125 1.484375q-0.21875 0.59375 -0.546875 0.859375q-0.3125 0.25 -0.75 0.25l-25.875 0q-1.4375 0 -2.421875 -0.84375q-0.96875 -0.859375 -0.96875 -2.78125l0 -51.25q0 -0.4375 0.28125 -0.78125q0.28125 -0.34375 0.9375 -0.5625q0.65625 -0.21875 1.765625 -0.34375q1.109375 -0.140625 2.765625 -0.140625q1.703125 0 2.796875 0.140625q1.09375 0.125 1.734375 0.34375q0.65625 0.21875 0.9375 0.5625q0.296875 0.34375 0.296875 0.78125l0 45.40625l17.75 0q0.4375 0 0.75 0.25q0.328125 0.234375 0.546875 0.78125q0.21875 0.546875 0.328125 1.4375q0.109375 0.890625 0.109375 2.203125z" fill-rule="nonzero"/><path fill="#080691" d="m0.5782562 292.98163l0 0c0 -34.667816 28.103827 -62.771652 62.771656 -62.771652l0 0c16.648075 0 32.614292 6.6134186 44.386257 18.385391c11.771973 11.771973 18.385399 27.73819 18.385399 44.38626l0 0c0 34.667816 -28.103828 62.771667 -62.771656 62.771667l0 0c-34.667828 0 -62.771656 -28.103851 -62.771656 -62.771667z" fill-rule="evenodd"/><path fill="#eeeeee" d="m88.4356 322.31976q-0.265625 1.046875 -0.734375 1.6875q-0.453125 0.625 -1.375 0.953125q-0.90625 0.328125 -2.34375 0.4375q-1.4375 0.109375 -3.671875 0.109375q-2.484375 0 -3.984375 -0.109375q-1.5 -0.109375 -2.375 -0.4375q-0.875 -0.328125 -1.265625 -0.953125q-0.390625 -0.640625 -0.609375 -1.6875l-9.03125 -35.765625l-0.09375 0l-8.546875 35.765625q-0.21875 1.0 -0.609375 1.640625q-0.390625 0.625 -1.25 0.984375q-0.84375 0.34375 -2.3125 0.453125q-1.453125 0.109375 -3.84375 0.109375q-2.53125 0 -4.046875 -0.109375q-1.5 -0.109375 -2.375 -0.4375q-0.875 -0.328125 -1.265625 -0.953125q-0.390625 -0.640625 -0.65625 -1.6875l-12.812498 -49.25q-0.390625 -1.5625 -0.4375 -2.453125q-0.046875 -0.90625 0.5 -1.375q0.546875 -0.484375 1.78125 -0.59375q1.25 -0.109375 3.46875 -0.109375q2.062498 0 3.249998 0.0625q1.203125 0.0625 1.8125 0.3125q0.609375 0.234375 0.828125 0.703125q0.21875 0.453125 0.34375 1.28125l9.90625 43.21875l0.046875 0l10.296875 -42.921875q0.171875 -0.828125 0.453125 -1.34375q0.28125 -0.53125 0.953125 -0.8125q0.6875 -0.28125 1.859375 -0.390625q1.171875 -0.109375 3.140625 -0.109375q2.09375 0 3.328125 0.09375q1.25 0.078125 1.921875 0.375q0.6875 0.28125 0.984375 0.796875q0.3125 0.515625 0.484375 1.390625l10.640625 42.921875l0.09375 0l9.890625 -43.09375q0.140625 -0.703125 0.359375 -1.203125q0.21875 -0.5 0.828125 -0.78125q0.609375 -0.28125 1.734375 -0.390625q1.140625 -0.109375 3.1875 -0.109375q1.921875 0 2.984375 0.109375q1.078125 0.109375 1.546875 0.59375q0.484375 0.46875 0.421875 1.40625q-0.0625 0.9375 -0.453125 2.5625l-12.953125 49.109375z" fill-rule="nonzero"/><path fill="#a5061e" d="m129.32367 292.98163l0 0c0 -34.667816 28.10382 -62.771652 62.771652 -62.771652l0 0c16.648071 0 32.61429 6.6134186 44.38626 18.385391c11.771957 11.771973 18.385391 27.73819 18.385391 44.38626l0 0c0 34.667816 -28.103836 62.771667 -62.771652 62.771667l0 0c-34.66783 0 -62.771652 -28.103851 -62.771652 -62.771667z" fill-rule="evenodd"/><path fill="#eeeeee" d="m218.81224 296.36664q0 7.015625 -1.75 12.5625q-1.734375 5.53125 -5.1875 9.40625q-3.4375 3.859375 -8.53125 5.890625q-5.078125 2.015625 -11.75 2.015625q-6.59375 0 -11.5 -1.71875q-4.90625 -1.71875 -8.171875 -5.25q-3.265625 -3.546875 -4.90625 -8.984375q-1.640625 -5.453125 -1.640625 -12.921875q0 -6.84375 1.75 -12.3125q1.75 -5.484375 5.1875 -9.3125q3.453125 -3.84375 8.53125 -5.890625q5.078125 -2.046875 11.796875 -2.046875q6.40625 0 11.3125 1.703125q4.90625 1.6875 8.203125 5.234375q3.296875 3.53125 4.96875 8.921875q1.6875 5.375 1.6875 12.703125zm-12.046875 0.609375q0 -4.453125 -0.703125 -8.09375q-0.6875 -3.640625 -2.375 -6.234375q-1.671875 -2.59375 -4.46875 -4.0q-2.78125 -1.421875 -6.96875 -1.421875q-4.234375 0 -7.078125 1.59375q-2.828125 1.578125 -4.578125 4.25q-1.734375 2.65625 -2.453125 6.21875q-0.71875 3.546875 -0.71875 7.515625q0 4.625 0.6875 8.3125q0.703125 3.6875 2.359375 6.3125q1.65625 2.609375 4.453125 3.984375q2.796875 1.359375 7.015625 1.359375q4.234375 0 7.0625 -1.5625q2.84375 -1.578125 4.578125 -4.28125q1.75 -2.703125 2.46875 -6.296875q0.71875 -3.59375 0.71875 -7.65625z" fill-rule="nonzero"/><path fill="#080691" d="m258.06906 292.98163l0 0c0 -34.667816 28.10382 -62.771652 62.771667 -62.771652l0 0c16.648071 0 32.61429 6.6134186 44.38626 18.385391c11.771973 11.771973 18.385376 27.73819 18.385376 44.38626l0 0c0 34.667816 -28.10382 62.771667 -62.771637 62.771667l0 0c-34.667847 0 -62.771667 -28.103851 -62.771667 -62.771667z" fill-rule="evenodd"/><path fill="#eeeeee" d="m346.16684 320.9604q0.515625 1.578125 0.640625 2.5q0.140625 0.90625 -0.34375 1.375q-0.484375 0.453125 -1.703125 0.5625q-1.21875 0.109375 -3.359375 0.109375q-2.21875 0 -3.46875 -0.078125q-1.234375 -0.0625 -1.890625 -0.25q-0.65625 -0.203125 -0.921875 -0.546875q-0.25 -0.34375 -0.4375 -0.921875l-3.78125 -11.328125l-21.203125 0l-3.578125 11.03125q-0.171875 0.609375 -0.453125 1.03125q-0.28125 0.40625 -0.921875 0.65625q-0.625 0.234375 -1.78125 0.3125q-1.15625 0.09375 -3.03125 0.09375q-2.015625 0 -3.15625 -0.140625q-1.125 -0.125 -1.5625 -0.625q-0.4375 -0.5 -0.3125 -1.40625q0.140625 -0.921875 0.65625 -2.453125l17.40625 -50.078125q0.265625 -0.734375 0.609375 -1.1875q0.359375 -0.46875 1.109375 -0.703125q0.765625 -0.25 2.109375 -0.3125q1.359375 -0.0625 3.59375 -0.0625q2.578125 0 4.09375 0.0625q1.53125 0.0625 2.375 0.3125q0.859375 0.234375 1.21875 0.71875q0.375 0.484375 0.640625 1.3125l17.453125 50.015625zm-25.921875 -41.390625l-0.03125 0l-7.984375 24.0l16.0 0l-7.984375 -24.0z" fill-rule="nonzero"/><path fill="#080691" d="m129.32367 164.27296l0 0c0 -34.66783 28.10382 -62.771652 62.771652 -62.771652l0 0c16.648071 0 32.61429 6.613426 44.38626 18.385391c11.771957 11.771973 18.385391 27.73819 18.385391 44.38626l0 0c0 34.66783 -28.103836 62.771652 -62.771652 62.771652l0 0c-34.66783 0 -62.771652 -28.10382 -62.771652 -62.771652z" fill-rule="evenodd"/><path fill="#eeeeee" d="m209.40771 144.7986q0 1.3125 -0.109375 2.203125q-0.109375 0.890625 -0.34375 1.421875q-0.234375 0.515625 -0.546875 0.78125q-0.3125 0.265625 -0.703125 0.265625l-18.4375 0l0 15.171875l17.3125 0q0.390625 0 0.6875 0.21875q0.3125 0.21875 0.546875 0.75q0.25 0.515625 0.359375 1.390625q0.109375 0.875 0.109375 2.1875q0 1.296875 -0.109375 2.171875q-0.109375 0.875 -0.359375 1.453125q-0.234375 0.5625 -0.546875 0.796875q-0.296875 0.234375 -0.6875 0.234375l-17.3125 0l0 21.03125q0 0.484375 -0.265625 0.828125q-0.265625 0.34375 -0.9375 0.59375q-0.671875 0.234375 -1.765625 0.359375q-1.09375 0.140625 -2.796875 0.140625q-1.65625 0 -2.765625 -0.140625q-1.109375 -0.125 -1.765625 -0.359375q-0.65625 -0.25 -0.9375 -0.59375q-0.28125 -0.34375 -0.28125 -0.828125l0 -51.171875q0 -1.90625 0.96875 -2.75q0.984375 -0.859375 2.421875 -0.859375l26.5625 0q0.390625 0 0.703125 0.25q0.3125 0.234375 0.546875 0.78125q0.234375 0.53125 0.34375 1.453125q0.109375 0.921875 0.109375 2.21875z" fill-rule="nonzero"/></g></svg>